<?xml version="1.0" standalone="no"?>
<!DOCTYPE svg PUBLIC "-//W3C//DTD SVG 20010904//EN"
 "http://www.w3.org/TR/2001/REC-SVG-20010904/DTD/svg10.dtd">
<svg version="1.0" xmlns="http://www.w3.org/2000/svg"
 width="2160.000000pt" height="2160.000000pt" viewBox="0 0 2160.000000 2160.000000"
 preserveAspectRatio="xMidYMid meet">

<g transform="translate(0.000000,2160.000000) scale(0.100000,-0.100000)"
fill="#000000" stroke="none">
<path d="M4170 21498 c0 -19 2 -20 10 -8 13 19 13 30 0 30 -5 0 -10 -10 -10
-22z"/>
<path d="M11242 21417 c8 -145 27 -159 28 -19 0 97 -2 112 -16 112 -15 0 -16
-12 -12 -93z"/>
<path d="M19049 21414 l-24 -26 43 21 c46 23 52 31 24 31 -10 0 -29 -12 -43
-26z"/>
<path d="M4106 21265 c-9 -23 -8 -55 2 -55 5 0 17 6 28 14 19 15 19 15 -2 36
-19 19 -22 20 -28 5z"/>
<path d="M5250 21180 c-328 -6 -330 -21 -3 -21 177 0 393 15 393 27 0 2 -24 3
-52 2 -29 -2 -181 -5 -338 -8z"/>
<path d="M5658 21183 c7 -3 16 -2 19 1 4 3 -2 6 -13 5 -11 0 -14 -3 -6 -6z"/>
<path d="M11400 21082 c0 -5 10 -17 22 -28 l21 -19 -18 28 c-18 28 -25 33 -25
19z"/>
<path d="M15760 21076 c0 -8 5 -18 10 -21 6 -3 10 3 10 14 0 12 -4 21 -10 21
-5 0 -10 -6 -10 -14z"/>
<path d="M11483 21000 c19 -16 38 -30 41 -30 4 0 -9 14 -27 30 -19 17 -38 30
-41 30 -4 0 9 -13 27 -30z"/>
<path d="M17686 20965 c8 -83 13 -88 52 -50 l32 32 -28 6 c-18 4 -34 17 -45
39 l-17 33 6 -60z"/>
<path d="M12379 20963 c-13 -16 -12 -17 4 -4 9 7 17 15 17 17 0 8 -8 3 -21
-13z"/>
<path d="M15786 20947 c3 -10 9 -15 12 -12 3 3 0 11 -7 18 -10 9 -11 8 -5 -6z"/>
<path d="M19385 20924 c-17 -13 -34 -24 -38 -24 -5 0 -27 -13 -50 -29 -23 -15
-87 -51 -143 -79 -55 -28 -106 -57 -113 -66 -10 -12 -10 -31 -2 -88 6 -40 15
-134 21 -208 14 -191 20 -237 35 -257 11 -15 17 -16 56 -4 52 16 304 113 371
143 39 17 50 19 63 8 13 -11 15 -4 14 61 0 41 -8 105 -18 144 -10 38 -17 75
-14 81 2 5 -12 37 -32 69 -33 56 -105 227 -105 252 0 22 -15 21 -45 -3z m-235
-209 c-6 -8 -9 -19 -5 -25 4 -6 4 -19 0 -28 -21 -50 -21 -146 0 -195 8 -20 15
-52 15 -72 0 -28 5 -38 25 -47 29 -13 34 -48 8 -49 -10 0 -13 -3 -7 -5 6 -3
22 -1 35 4 18 7 27 5 36 -7 11 -14 14 -14 22 -1 6 8 13 11 18 7 11 -11 -46
-55 -82 -63 -16 -3 -38 -13 -48 -22 -28 -25 -35 -5 -38 103 -2 55 -9 119 -16
143 -8 29 -9 58 -4 88 5 26 6 64 4 85 -6 45 13 99 34 99 12 0 13 -3 3 -15z"/>
<path d="M11728 20863 c6 -2 18 -2 25 0 6 3 1 5 -13 5 -14 0 -19 -2 -12 -5z"/>
<path d="M14878 20863 c6 -2 18 -2 25 0 6 3 1 5 -13 5 -14 0 -19 -2 -12 -5z"/>
<path d="M15800 20835 c6 -59 -19 -74 -129 -76 l-66 -2 80 -11 c44 -6 87 -15
96 -21 10 -5 26 -39 37 -75 l20 -65 1 55 c1 72 -17 192 -30 205 -7 7 -10 4 -9
-10z"/>
<path d="M10875 20804 c-185 -43 -185 -43 -304 -121 -148 -98 -249 -181 -313
-258 -28 -33 -78 -91 -112 -128 -33 -38 -68 -81 -76 -95 -38 -66 -93 -132
-110 -132 -11 0 -40 11 -66 25 -67 36 -110 33 -174 -11 -47 -32 -53 -34 -73
-21 -12 8 -29 27 -37 43 -8 16 -31 53 -50 83 -19 29 -53 81 -75 115 -162 251
-377 446 -524 477 -77 16 -155 8 -185 -20 -70 -65 -123 -240 -136 -441 -11
-163 -10 -468 0 -640 14 -223 52 -492 71 -511 34 -34 177 -61 254 -49 173 28
346 112 495 240 58 50 123 102 146 115 l41 25 100 -50 c56 -28 109 -50 119
-50 34 0 118 30 156 55 21 14 44 25 52 25 8 0 63 -45 123 -101 168 -156 315
-253 413 -271 81 -16 180 -14 215 4 61 32 120 95 162 174 45 87 65 155 83 284
27 200 41 299 53 360 8 42 12 172 12 370 -1 295 -1 307 -23 352 -12 26 -35 62
-50 79 -25 30 -109 91 -121 88 -4 -1 -33 -8 -66 -15z m102 -66 c21 -13 46 -32
55 -43 41 -47 49 -150 11 -143 -23 4 -27 23 -9 40 13 13 12 18 -2 41 -37 55
-102 98 -102 67 0 -5 -7 -10 -15 -10 -8 0 -15 5 -15 11 0 12 -76 8 -164 -7
-49 -9 -42 9 10 26 28 10 142 33 186 39 4 1 24 -9 45 -21z m-2033 5 c3 -4 12
-8 19 -9 19 -4 81 -28 95 -37 20 -14 14 -29 -7 -17 -13 7 -22 7 -26 0 -11 -18
-59 -11 -73 10 -14 22 -48 19 -89 -8 -13 -8 -23 -10 -23 -6 0 5 -4 4 -8 -2 -4
-6 -16 -16 -27 -22 -11 -6 -14 -12 -7 -12 23 0 12 -28 -28 -71 -22 -24 -40
-39 -40 -35 0 5 10 44 22 88 27 100 55 124 149 127 20 0 39 -2 43 -6z m-24
-78 c0 -8 -4 -15 -10 -15 -5 0 -10 7 -10 15 0 8 5 15 10 15 6 0 10 -7 10 -15z
m-170 -1321 c0 -8 10 -24 23 -36 12 -13 22 -27 22 -33 0 -5 10 -14 22 -20 12
-5 24 -17 26 -27 5 -16 29 -23 65 -19 6 1 12 -4 12 -12 0 -19 -63 -28 -118
-18 -23 5 -45 11 -47 13 -3 3 -8 34 -11 69 -4 35 -10 71 -15 80 -5 9 -6 19 -2
22 9 9 23 -2 23 -19z m2165 -64 c8 -13 -19 -47 -77 -97 -60 -52 -102 -59 -203
-34 -89 23 -103 31 -52 31 20 0 39 -5 43 -11 4 -6 26 -9 58 -6 59 6 88 15 99
34 4 7 19 13 33 13 13 0 27 7 30 15 4 8 12 15 20 15 7 0 16 11 20 25 6 26 18
32 29 15z"/>
<path d="M15188 20803 c6 -2 18 -2 25 0 6 3 1 5 -13 5 -14 0 -19 -2 -12 -5z"/>
<path d="M17790 20448 c0 -25 29 -229 44 -313 22 -120 46 -267 65 -399 6 -44
13 -81 16 -84 2 -3 9 7 14 21 11 28 22 33 96 42 28 3 84 13 125 20 41 8 104
19 140 26 36 6 68 16 72 22 11 18 10 340 -2 437 -17 148 -18 152 -43 148 -17
-2 -22 -9 -20 -28 12 -158 16 -223 18 -267 2 -28 7 -58 11 -65 5 -7 8 -43 8
-80 -1 -71 -18 -112 -51 -122 -55 -17 -197 -39 -258 -40 -80 -1 -72 -12 -100
134 -21 112 -38 234 -39 290 l-1 44 65 17 c36 10 79 18 96 18 17 1 51 8 74 16
23 8 57 15 74 15 35 0 90 40 66 48 -18 6 -167 -16 -270 -40 -47 -10 -96 -22
-110 -24 -39 -8 -61 24 -69 100 -6 58 -21 104 -21 64z"/>
<path d="M15860 20395 c0 -16 5 -37 10 -45 7 -12 10 -8 10 15 0 17 -5 37 -10
45 -7 12 -10 8 -10 -15z"/>
<path d="M3871 20263 c-5 -21 -15 -65 -22 -98 -6 -33 -17 -78 -25 -100 -11
-38 -24 -98 -83 -407 -12 -59 -21 -117 -21 -130 1 -37 28 33 36 92 9 70 34 94
93 87 25 -3 125 -11 221 -17 96 -6 229 -15 295 -20 191 -15 690 -34 709 -27
13 5 16 19 15 69 -1 65 14 233 30 328 5 31 5 62 0 71 -13 25 -96 56 -169 64
-36 3 -101 13 -145 21 -86 15 -581 61 -755 71 -63 3 -114 11 -127 19 -34 21
-41 17 -52 -23z m140 -50 c35 -21 37 -32 7 -35 -13 0 -29 -2 -36 -2 -19 -2
-52 -57 -52 -88 0 -19 -5 -28 -16 -28 -10 0 -13 -6 -10 -18 4 -10 -1 -27 -9
-38 -8 -11 -14 -41 -15 -72 0 -44 4 -57 25 -76 14 -13 25 -30 25 -38 0 -20 26
-42 40 -33 13 8 42 -14 34 -26 -3 -5 -44 -8 -91 -7 -63 2 -87 6 -91 17 -8 21
17 162 34 189 8 12 12 27 9 32 -3 5 1 33 9 62 8 29 17 74 21 100 10 73 55 97
116 61z m1048 -97 c15 -10 14 -57 -5 -151 -8 -44 -18 -125 -22 -180 l-7 -100
-36 -3 c-29 -2 -42 3 -70 29 -29 27 -31 31 -12 27 20 -5 21 -3 13 12 -17 31
-11 49 20 65 26 14 30 21 30 60 0 24 5 47 10 50 6 3 10 16 11 28 1 20 2 20 9
-3 7 -22 8 -21 9 13 1 34 -6 42 -31 38 -5 0 -8 3 -8 8 0 5 -5 22 -11 38 -8 22
-12 24 -19 13 -8 -13 -10 -13 -10 1 0 8 -18 25 -40 38 -22 12 -40 25 -40 28 0
7 196 -3 209 -11z m-1139 -171 c0 -8 -4 -15 -10 -15 -5 0 -10 7 -10 15 0 8 5
15 10 15 6 0 10 -7 10 -15z m980 -235 c0 -5 -5 -10 -11 -10 -5 0 -7 5 -4 10 3
6 8 10 11 10 2 0 4 -4 4 -10z"/>
<path d="M4940 19775 c-11 -13 -10 -14 4 -9 9 3 16 10 16 15 0 13 -6 11 -20
-6z"/>
<path d="M18104 20166 c-3 -9 -14 -16 -23 -16 -10 0 -28 -11 -41 -24 -20 -23
-21 -26 -7 -40 9 -9 22 -13 30 -10 8 3 18 0 22 -6 8 -12 -14 -108 -29 -128
-15 -20 11 -32 40 -18 13 6 30 23 37 39 7 16 20 27 32 27 17 0 17 2 5 10 -11
7 -7 10 18 10 17 0 32 -5 32 -11 0 -5 4 -8 9 -4 12 7 12 82 0 110 -6 16 -8 14
-10 -15 -1 -19 -2 -40 -2 -46 0 -6 -6 -11 -13 -11 -17 0 -17 3 -4 28 8 15 8
19 -2 17 -8 -2 -14 10 -16 35 -2 26 -8 37 -19 37 -9 0 -25 7 -35 16 -16 16
-18 16 -24 0z m54 -74 c-4 -35 -23 -26 -22 10 1 16 -1 26 -5 24 -4 -3 -7 4 -7
14 0 18 1 18 19 -1 11 -12 17 -30 15 -47z m-44 3 c-5 -13 -9 -13 -23 -3 -9 7
-18 14 -20 15 -2 2 8 3 22 3 20 0 25 -4 21 -15z m10 -58 c2 -15 0 -27 -5 -27
-5 0 -9 14 -9 32 0 37 7 34 14 -5z"/>
<path d="M15898 20123 c-9 -89 25 -83 -458 -83 -348 0 -429 -2 -433 -13 -3 -8
-1 -52 5 -98 5 -46 12 -165 16 -264 l7 -180 368 1 c246 1 393 6 442 14 66 11
77 11 100 -4 16 -11 25 -26 26 -44 0 -15 4 -36 9 -47 24 -51 -25 454 -69 725
l-7 45 -6 -52z m-581 -137 c3 -3 -12 -6 -35 -6 -33 0 -47 -6 -64 -25 -12 -14
-28 -23 -35 -21 -9 4 -13 -3 -13 -20 0 -14 -4 -23 -9 -20 -5 3 -14 -1 -20 -8
-9 -11 -7 -17 9 -29 l22 -15 -21 -7 c-12 -3 -21 -13 -21 -21 0 -8 -4 -14 -10
-14 -5 0 -10 -4 -10 -10 0 -5 6 -10 14 -10 9 0 12 -7 9 -20 -3 -11 -9 -17 -15
-14 -11 7 -1 -38 19 -86 10 -24 22 -36 36 -37 12 -1 32 -11 46 -23 15 -11 38
-25 53 -31 50 -20 41 -36 -24 -43 -95 -10 -148 -7 -153 7 -2 6 -6 62 -8 122
-3 61 -13 161 -23 223 -12 80 -15 116 -7 120 13 8 251 -2 260 -12z m573 -83
c0 -52 5 -104 11 -115 17 -32 30 -211 16 -221 -12 -8 -116 -1 -125 8 -10 10 9
37 23 31 10 -4 20 3 27 19 6 14 16 25 21 25 14 0 1 203 -15 229 -7 12 -21 21
-30 21 -14 0 -16 6 -11 30 5 28 3 30 -23 32 -32 1 -32 1 -89 13 -32 7 -36 9
-19 16 11 4 55 7 98 7 43 1 80 3 83 6 3 2 11 2 19 -1 11 -4 14 -28 14 -100z
m-695 -13 c3 -5 1 -10 -4 -10 -6 0 -11 5 -11 10 0 6 2 10 4 10 3 0 8 -4 11
-10z m645 -40 c0 -5 -4 -10 -10 -10 -5 0 -10 5 -10 10 0 6 5 10 10 10 6 0 10
-4 10 -10z"/>
<path d="M6685 20129 c-55 -4 -156 -11 -225 -14 -69 -4 -127 -9 -129 -11 -2
-2 7 -8 20 -13 l24 -10 -23 0 c-14 -1 -27 -10 -34 -26 -6 -14 -22 -32 -35 -40
-12 -9 -23 -22 -23 -30 0 -8 -11 -22 -24 -30 -29 -19 -39 -61 -19 -81 12 -11
12 -18 4 -28 -9 -11 -9 -16 0 -21 7 -5 9 -23 5 -51 -5 -39 -3 -44 14 -44 15 0
20 -7 20 -28 0 -25 34 -72 46 -64 2 1 16 2 32 1 26 0 26 -1 -7 -13 -39 -14
-138 -11 -156 4 -9 7 -11 30 -8 73 3 34 5 71 6 82 1 11 7 26 14 33 16 16 17
29 3 37 -5 3 -10 37 -10 74 0 41 -5 74 -14 86 -12 17 -14 16 -19 -16 -21 -118
-37 -289 -31 -335 10 -81 15 -85 140 -100 301 -36 593 -41 916 -14 196 16 512
72 525 93 4 7 12 59 19 117 6 58 19 160 29 226 10 67 15 129 12 138 -6 14 -52
16 -489 14 -266 -1 -528 -5 -583 -9z m1012 -31 c12 -15 8 -103 -7 -168 -6 -25
-12 -89 -13 -142 -4 -112 -13 -129 -63 -121 -22 4 -34 2 -34 -6 0 -6 -13 -11
-30 -11 -35 0 -40 19 -10 38 11 7 20 23 20 37 0 14 5 25 11 25 6 0 9 -7 5 -15
-3 -10 1 -15 14 -15 27 0 34 16 31 72 -1 36 2 50 14 54 10 4 15 20 15 51 0 27
-4 42 -10 38 -5 -3 -10 -1 -10 5 0 6 -5 8 -11 4 -7 -4 -9 0 -5 14 4 13 1 22
-9 25 -8 4 -12 13 -9 21 3 9 -3 17 -17 21 -13 4 -32 18 -42 31 -14 18 -28 24
-58 24 -27 0 -38 4 -33 11 3 6 18 9 33 6 14 -2 53 -1 86 3 96 11 122 11 132
-2z m-1267 -8 c0 -5 -10 -10 -22 -9 -22 0 -22 1 -3 9 11 5 21 9 23 9 1 1 2 -3
2 -9z m1070 -444 c-15 -15 -33 4 -19 20 10 12 14 12 20 2 5 -7 4 -17 -1 -22z
m-60 4 c0 -5 -2 -10 -4 -10 -3 0 -8 5 -11 10 -3 6 -1 10 4 10 6 0 11 -4 11
-10z"/>
<path d="M17986 20095 c4 -8 8 -15 10 -15 2 0 4 7 4 15 0 8 -4 15 -10 15 -5 0
-7 -7 -4 -15z"/>
<path d="M12019 20078 c-1 -7 0 -118 0 -246 2 -334 3 -335 196 -351 66 -6 188
-17 270 -25 83 -8 247 -20 365 -26 118 -6 269 -15 335 -20 165 -12 315 -12
372 0 26 6 78 12 116 13 37 2 72 8 77 13 4 5 16 74 25 154 9 80 18 151 21 159
2 8 12 69 20 135 15 111 15 121 -1 132 -9 7 -71 14 -153 18 -75 3 -234 11
-352 16 -877 42 -1289 51 -1291 28z m159 -28 c74 0 108 -13 82 -30 -8 -5 -32
-7 -52 -5 -20 3 -40 1 -43 -5 -3 -6 5 -10 19 -10 34 0 42 -18 11 -26 -13 -3
-22 -10 -19 -15 3 -5 -4 -9 -16 -9 -12 0 -18 5 -15 10 3 6 2 10 -2 10 -15 0
-33 -23 -33 -42 0 -11 -8 -33 -17 -51 l-17 -32 -7 35 c-4 19 -11 65 -15 102
-6 59 -4 67 12 71 11 2 25 3 32 1 8 -2 44 -4 80 -4z m1365 -67 c-7 -2 -19 -2
-25 0 -7 3 -2 5 12 5 14 0 19 -2 13 -5z m235 -35 c2 -15 -6 -62 -18 -104 -11
-42 -25 -122 -30 -176 -14 -148 -30 -195 -67 -202 -30 -6 -50 9 -35 27 7 7 9
17 5 20 -3 4 -1 7 5 7 7 0 9 7 5 17 -5 12 -2 15 10 10 9 -3 19 -2 22 3 16 26
37 135 41 216 5 90 5 92 -22 113 -15 11 -36 21 -48 21 -17 0 -18 2 -6 10 8 5
26 10 40 11 15 0 -1 9 -42 22 -37 12 -70 26 -74 30 -5 4 41 6 101 5 l110 -3 3
-27z m-1663 -277 c-4 -13 2 -25 20 -40 15 -11 24 -25 21 -30 -8 -12 21 -41 40
-41 9 0 24 4 34 10 13 7 24 5 42 -9 13 -11 35 -21 48 -24 14 -2 -20 -3 -75 -2
-62 1 -112 7 -130 16 -27 12 -30 20 -33 64 -2 27 0 65 3 84 6 33 7 33 21 12 9
-12 13 -30 9 -40z m1438 -223 c-16 -8 -32 -8 -55 0 -32 9 -31 10 22 10 46 1
52 -1 33 -10z"/>
<path d="M17996 20053 c-9 -9 -7 -33 3 -33 12 0 22 28 12 34 -5 3 -11 3 -15
-1z"/>
<path d="M18036 20045 c4 -8 8 -15 10 -15 2 0 4 7 4 15 0 8 -4 15 -10 15 -5 0
-7 -7 -4 -15z"/>
<path d="M19646 20035 c4 -9 16 -21 28 -27 19 -10 19 -9 -3 16 -28 30 -33 32
-25 11z"/>
<path d="M18260 19970 c0 -5 5 -10 10 -10 6 0 10 5 10 10 0 6 -4 10 -10 10 -5
0 -10 -4 -10 -10z"/>
<path d="M3675 19299 c-3 -13 -9 -53 -14 -89 -5 -36 -12 -81 -16 -100 -5 -34
-5 -34 8 5 17 50 41 195 33 202 -3 3 -8 -5 -11 -18z"/>
<path d="M19208 19165 c-131 -137 -176 -196 -67 -90 80 79 203 215 198 219 -2
2 -61 -56 -131 -129z"/>
<path d="M3627 19030 c-14 -34 -73 -388 -65 -395 3 -3 12 22 21 55 12 40 25
65 41 75 24 16 24 17 5 36 -23 23 -24 38 -3 125 14 64 16 138 1 104z"/>
<path d="M4995 18996 c-16 -12 -13 -14 31 -19 27 -3 50 -4 52 -2 2 1 -4 10
-13 19 -20 20 -45 21 -70 2z"/>
<path d="M7881 18891 c-11 -7 0 -16 40 -37 78 -41 78 -41 29 4 -48 46 -48 46
-69 33z"/>
<path d="M8029 18786 c6 -8 22 -16 34 -19 22 -6 22 -6 -2 14 -27 22 -49 26
-32 5z"/>
<path d="M3710 18780 l-35 -6 35 -7 c86 -17 249 -11 347 12 46 11 -292 12
-347 1z"/>
<path d="M4862 18675 c0 -16 2 -22 5 -12 2 9 2 23 0 30 -3 6 -5 -1 -5 -18z"/>
<path d="M11350 18635 c-11 -13 -8 -15 19 -15 18 0 41 -5 53 -11 34 -18 32 -1
-3 20 -41 25 -53 26 -69 6z"/>
<path d="M18055 18522 c8 -92 20 -111 30 -47 4 32 15 55 32 71 19 17 22 25 12
28 -8 2 -29 9 -48 15 l-33 11 7 -78z"/>
<path d="M7064 18575 c-4 -8 -3 -32 1 -53 l7 -37 24 49 c13 28 24 51 24 53 0
11 -52 0 -56 -12z"/>
<path d="M4853 18545 c0 -22 2 -30 4 -17 2 12 2 30 0 40 -3 9 -5 -1 -4 -23z"/>
<path d="M8454 18545 c9 -13 16 -39 16 -57 l0 -33 26 33 c14 17 32 32 40 32
28 0 13 18 -29 34 -62 23 -73 22 -53 -9z"/>
<path d="M11557 18519 c12 -12 25 -20 28 -17 3 3 -7 13 -22 23 l-28 17 22 -23z"/>
<path d="M3542 18510 c0 -14 2 -19 5 -12 2 6 2 18 0 25 -3 6 -5 1 -5 -13z"/>
<path d="M3523 18424 c-7 -33 -13 -78 -12 -100 1 -37 1 -36 15 21 8 33 13 78
12 100 -3 39 -3 39 -15 -21z"/>
<path d="M11640 18460 c33 -26 52 -25 21 0 -13 11 -28 20 -35 20 -6 0 0 -9 14
-20z"/>
<path d="M7057 18446 c-4 -10 -7 -25 -6 -34 0 -11 4 -9 10 7 5 13 8 29 6 35
-2 5 -6 2 -10 -8z"/>
<path d="M14672 18347 c87 -80 83 -70 93 -244 4 -62 11 -110 16 -107 5 3 9 19
9 36 0 51 22 162 36 177 10 11 23 8 79 -18 68 -32 105 -37 43 -5 -50 25 -237
151 -290 195 -77 64 -68 43 14 -34z"/>
<path d="M14388 18374 c-27 -13 -48 -27 -48 -29 0 -7 102 33 114 45 18 18 -17
10 -66 -16z"/>
<path d="M9148 18343 c6 -2 18 -2 25 0 6 3 1 5 -13 5 -14 0 -19 -2 -12 -5z"/>
<path d="M10393 18343 c9 -2 25 -2 35 0 9 3 1 5 -18 5 -19 0 -27 -2 -17 -5z"/>
<path d="M7027 18315 c-9 -25 -27 -160 -26 -195 1 -14 10 16 20 65 19 88 23
176 6 130z"/>
<path d="M9330 18310 c8 -5 22 -9 30 -9 10 0 8 3 -5 9 -27 12 -43 12 -25 0z"/>
<path d="M10215 18310 c-3 -5 1 -10 9 -10 8 0 18 5 21 10 3 6 -1 10 -9 10 -8
0 -18 -4 -21 -10z"/>
<path d="M11902 18291 c12 -15 28 -37 34 -47 10 -16 13 -17 27 -5 16 12 33 11
84 -5 38 -12 -21 28 -84 57 -79 36 -91 36 -61 0z"/>
<path d="M9493 18294 c5 -5 220 -25 277 -26 56 0 271 20 278 26 3 3 -122 6
-278 5 -155 0 -280 -2 -277 -5z"/>
<path d="M14200 18290 c-12 -8 -12 -10 5 -10 11 0 27 5 35 10 12 8 12 10 -5
10 -11 0 -27 -5 -35 -10z"/>
<path d="M14021 18230 c-24 -11 -41 -23 -38 -26 7 -8 105 24 112 37 10 15 -28
10 -74 -11z"/>
<path d="M12160 18190 c8 -5 24 -9 35 -9 l20 0 -20 9 c-11 5 -27 9 -35 9 -13
1 -13 0 0 -9z"/>
<path d="M4533 18144 c-10 -27 7 -1213 20 -1401 7 -94 14 -174 17 -176 6 -6 1
1563 -5 1581 -6 17 -24 15 -32 -4z"/>
<path d="M15004 18145 c22 -17 40 -20 32 -6 -3 5 -16 11 -28 14 -22 6 -22 5
-4 -8z"/>
<path d="M3472 18093 c-22 -105 -25 -133 -14 -133 5 0 12 15 15 33 10 54 20
157 15 157 -2 0 -9 -26 -16 -57z"/>
<path d="M16058 18105 c-19 -26 -23 -45 -10 -45 19 0 32 -55 32 -130 0 -43 5
-82 10 -85 6 -4 10 14 10 48 0 84 -12 237 -19 237 -3 0 -14 -11 -23 -25z"/>
<path d="M8432 18065 c0 -16 2 -22 5 -12 2 9 2 23 0 30 -3 6 -5 -1 -5 -18z"/>
<path d="M4811 18054 c0 -11 3 -14 6 -6 3 7 2 16 -1 19 -3 4 -6 -2 -5 -13z"/>
<path d="M12793 18054 c9 -9 173 -33 227 -34 58 0 202 21 214 32 6 4 -93 8
-219 8 -125 0 -225 -3 -222 -6z"/>
<path d="M15414 18033 c1 -2 43 -10 92 -19 86 -15 132 -14 234 5 l45 8 -65 3
c-114 3 -308 5 -306 3z"/>
<path d="M8422 17985 c0 -16 2 -22 5 -12 2 9 2 23 0 30 -3 6 -5 -1 -5 -18z"/>
<path d="M4804 17810 c0 -58 1 -81 3 -52 2 28 2 76 0 105 -2 28 -3 5 -3 -53z"/>
<path d="M6952 17850 c0 -14 2 -19 5 -12 2 6 2 18 0 25 -3 6 -5 1 -5 -13z"/>
<path d="M12064 17764 c-4 -14 -4 -54 -1 -87 3 -34 1 -121 -5 -194 -7 -86 -7
-141 -1 -160 8 -21 12 12 17 142 4 94 12 186 17 205 14 56 12 120 -6 120 -8 0
-18 -12 -21 -26z"/>
<path d="M11907 17707 c-5 -43 -6 -81 -3 -84 10 -10 17 43 14 102 l-3 60 -8
-78z"/>
<path d="M8386 17674 c-9 -24 -7 -82 3 -88 10 -7 21 27 21 66 0 31 -15 45 -24
22z"/>
<path d="M3412 17650 c0 -14 2 -19 5 -12 2 6 2 18 0 25 -3 6 -5 1 -5 -13z"/>
<path d="M11903 17565 c0 -22 2 -30 4 -17 2 12 2 30 0 40 -3 9 -5 -1 -4 -23z"/>
<path d="M6896 17502 c-5 -18 -5 -36 -2 -39 7 -7 19 43 13 59 -2 7 -7 -2 -11
-20z"/>
<path d="M11893 17415 c0 -22 2 -30 4 -17 2 12 2 30 0 40 -3 9 -5 -1 -4 -23z"/>
<path d="M14753 17305 c0 -38 2 -53 4 -32 2 20 2 52 0 70 -2 17 -4 1 -4 -38z"/>
<path d="M18150 17268 c0 -9 5 -20 10 -23 13 -8 13 5 0 25 -8 13 -10 13 -10
-2z"/>
<path d="M6842 17060 c0 -19 2 -27 5 -17 2 9 2 25 0 35 -3 9 -5 1 -5 -18z"/>
<path d="M14742 16990 c0 -14 2 -19 5 -12 2 6 2 18 0 25 -3 6 -5 1 -5 -13z"/>
<path d="M8335 16957 c-5 -30 -4 -52 3 -59 14 -14 24 40 13 77 -8 29 -8 29
-16 -18z"/>
<path d="M18173 16325 c0 -368 -1 -807 -2 -974 -1 -167 1 -306 4 -309 3 -3 6
30 7 74 1 43 3 95 4 114 1 19 8 201 15 404 10 301 10 435 -1 730 -24 644 -26
641 -27 -39z"/>
<path d="M3328 16957 c-12 -29 -10 -63 3 -50 6 6 9 23 7 39 -2 24 -4 26 -10
11z"/>
<path d="M3314 16858 c-9 -14 -19 -165 -10 -157 6 5 25 169 20 169 -2 0 -6 -5
-10 -12z"/>
<path d="M11852 16820 c0 -14 2 -19 5 -12 2 6 2 18 0 25 -3 6 -5 1 -5 -13z"/>
<path d="M12014 16530 c0 -58 1 -81 3 -52 2 28 2 76 0 105 -2 28 -3 5 -3 -53z"/>
<path d="M11841 16584 c0 -11 3 -14 6 -6 3 7 2 16 -1 19 -3 4 -6 -2 -5 -13z"/>
<path d="M6788 16410 c-4 -14 -8 -38 -7 -55 0 -30 0 -30 10 -5 6 13 9 38 7 55
-3 29 -3 30 -10 5z"/>
<path d="M12002 16339 c-1 -31 -4 -72 -7 -90 l-5 -34 11 33 c5 19 8 59 6 90
l-3 57 -2 -56z"/>
<path d="M4576 16099 l7 -236 -24 -16 c-13 -10 -33 -17 -44 -18 -13 0 -9 -4
12 -10 43 -13 59 -39 77 -129 15 -80 28 -285 19 -319 -7 -27 -20 -30 -78 -20
-28 5 -90 13 -140 19 -49 6 -124 15 -165 21 -89 11 -410 45 -600 64 -74 8
-149 17 -166 20 -48 10 -64 -20 -64 -117 0 -85 4 -92 59 -90 19 1 46 -5 58
-14 17 -10 28 -12 42 -5 13 8 38 5 87 -8 38 -10 101 -24 139 -31 39 -6 108
-20 155 -30 47 -11 130 -26 185 -35 55 -8 134 -22 175 -30 41 -8 116 -21 165
-30 50 -9 119 -22 155 -30 36 -7 85 -16 110 -19 25 -3 69 -12 98 -21 64 -20
66 -32 12 -109 -98 -140 -190 -367 -257 -636 l-36 -145 -1 -325 0 -325 32
-145 c47 -209 82 -324 143 -473 16 -38 29 -74 29 -79 0 -5 27 -67 60 -138 33
-71 60 -138 60 -149 0 -24 -35 -37 -72 -26 -22 7 -22 6 -3 -7 38 -27 171 -76
240 -88 39 -7 113 -23 165 -35 52 -13 131 -28 175 -35 44 -6 116 -18 160 -26
181 -33 416 -68 510 -75 55 -4 179 -15 275 -23 269 -24 656 -39 850 -32 202 7
450 22 456 29 3 3 -47 8 -111 12 -83 5 -118 11 -122 20 -2 8 16 58 42 112 94
196 176 489 204 728 13 109 14 573 1 705 -5 52 -16 140 -25 195 -9 55 -20 134
-25 175 -5 41 -28 147 -51 235 -64 245 -65 251 -49 270 15 19 87 18 285 -4 50
-5 158 -11 240 -13 l150 -3 4 25 c2 14 -3 57 -10 95 -10 57 -19 76 -45 101
-18 17 -45 34 -61 36 -15 3 -77 16 -138 30 -60 14 -148 31 -195 37 -47 7 -101
16 -120 22 -34 9 -215 37 -520 79 -191 27 -227 40 -239 88 -25 93 -41 171 -41
203 0 19 -5 41 -10 49 -13 20 -13 -23 0 -152 5 -54 7 -105 4 -113 -10 -25 -45
-27 -160 -10 -60 9 -161 23 -224 31 -63 8 -176 23 -250 34 -248 36 -279 40
-324 40 -24 0 -66 4 -93 9 -26 6 -106 17 -178 26 -71 8 -204 24 -295 36 -91
11 -205 24 -254 30 -125 15 -132 18 -149 81 -25 88 -35 148 -42 248 -7 85 -5
97 11 111 11 10 28 19 39 21 15 3 9 8 -23 18 -24 7 -48 22 -53 32 -9 17 -12
17 -32 3 -12 -8 -35 -15 -51 -15 l-29 0 34 -23 c19 -12 39 -34 46 -47 32 -68
71 -363 51 -387 -14 -17 -45 -16 -101 3 -37 12 -48 22 -56 47 -12 37 -37 190
-47 289 -6 63 -5 68 20 91 26 24 26 25 6 38 -30 20 -47 122 -54 329 -4 99 -11
179 -17 185 -7 7 -8 -63 -3 -226z m829 -2766 c88 -148 103 -162 208 -182 31
-6 83 -16 115 -22 57 -11 82 -23 82 -40 0 -5 -45 -57 -100 -115 -55 -59 -100
-114 -100 -122 0 -8 38 -94 86 -190 102 -210 102 -237 1 -172 -26 17 -71 42
-100 56 -29 15 -63 35 -76 45 -34 27 -62 24 -106 -11 -21 -16 -41 -30 -45 -30
-3 0 -37 -25 -75 -55 -38 -30 -75 -55 -82 -55 -7 0 -16 12 -19 27 -7 27 2 268
12 339 5 36 2 45 -25 77 -18 19 -51 47 -74 60 -53 32 -108 89 -99 103 4 5 34
21 67 34 86 33 170 78 194 104 18 19 23 40 28 127 6 101 15 133 37 126 5 -2
37 -49 71 -104z"/>
<path d="M4780 15998 c0 -13 5 -30 10 -38 7 -11 10 -5 10 23 0 20 -4 37 -10
37 -5 0 -10 -10 -10 -22z"/>
<path d="M14692 15970 c0 -14 2 -19 5 -12 2 6 2 18 0 25 -3 6 -5 1 -5 -13z"/>
<path d="M14693 15905 c0 -22 2 -30 4 -17 2 12 2 30 0 40 -3 9 -5 -1 -4 -23z"/>
<path d="M11792 15880 c0 -14 2 -19 5 -12 2 6 2 18 0 25 -3 6 -5 1 -5 -13z"/>
<path d="M14692 15820 c0 -14 2 -19 5 -12 2 6 2 18 0 25 -3 6 -5 1 -5 -13z"/>
<path d="M14683 15725 c0 -22 2 -30 4 -17 2 12 2 30 0 40 -3 9 -5 -1 -4 -23z"/>
<path d="M4995 15740 c11 -5 29 -9 40 -9 l20 0 -20 9 c-11 5 -29 9 -40 9 l-20
0 20 -9z"/>
<path d="M5112 15720 c25 -15 108 -25 108 -13 0 12 -47 23 -94 23 -25 -1 -28
-3 -14 -10z"/>
<path d="M6768 15678 c-4 -140 -5 -152 -28 -170 l-22 -18 25 -9 c14 -6 32 -20
39 -33 l13 -23 33 32 c29 28 30 32 14 37 -27 9 -42 48 -42 109 0 113 -28 180
-32 75z"/>
<path d="M5485 15660 c17 -4 41 -8 55 -9 20 0 22 1 10 9 -8 5 -33 9 -55 9 -39
-1 -39 -2 -10 -9z"/>
<path d="M5665 15634 c63 -17 91 -17 45 1 -19 7 -48 13 -65 13 -24 0 -20 -3
20 -14z"/>
<path d="M5805 15610 c11 -5 36 -9 55 -9 28 0 31 2 15 9 -11 5 -36 9 -55 9
-28 0 -31 -2 -15 -9z"/>
<path d="M11952 15575 c0 -16 2 -22 5 -12 2 9 2 23 0 30 -3 6 -5 -1 -5 -18z"/>
<path d="M14671 15538 c1 -60 2 -61 10 -23 11 55 11 85 -1 85 -6 0 -10 -27 -9
-62z"/>
<path d="M3198 15550 c-11 -42 -17 -144 -8 -165 6 -17 9 -15 14 15 9 46 3 185
-6 150z"/>
<path d="M6175 15560 c3 -5 21 -10 38 -10 24 0 28 3 17 10 -20 13 -63 13 -55
0z"/>
<path d="M6355 15540 c3 -5 18 -10 33 -9 24 0 25 1 7 9 -28 12 -47 12 -40 0z"/>
<path d="M6545 15512 c6 -6 37 -13 70 -17 46 -6 57 -4 49 4 -6 7 -38 15 -70
18 -41 4 -56 2 -49 -5z"/>
<path d="M11743 15429 c-7 -36 -13 -77 -13 -92 0 -52 -16 -57 -195 -57 -90 0
-166 -4 -169 -9 -8 -12 50 -20 199 -27 72 -4 136 -11 143 -17 17 -13 15 -114
-3 -190 -8 -34 -19 -104 -24 -155 -5 -52 -14 -99 -20 -105 -16 -16 -491 -13
-579 3 -71 12 -103 3 -133 -40 -23 -34 -34 -180 -14 -206 15 -21 52 -26 365
-45 180 -11 298 -32 307 -56 3 -7 -22 -71 -55 -141 -182 -384 -227 -548 -263
-968 -12 -144 -11 -160 22 -484 26 -255 143 -650 265 -892 40 -79 41 -92 12
-112 l-21 -15 29 -12 c48 -19 294 -79 364 -89 36 -5 109 -19 163 -30 54 -11
135 -24 180 -30 45 -5 114 -14 152 -20 117 -18 471 -40 635 -40 184 0 542 23
690 44 58 8 148 20 200 26 52 7 115 20 139 31 24 10 52 19 62 19 24 0 124 45
134 60 4 6 0 19 -8 28 -20 23 -13 36 50 101 80 84 176 233 208 326 15 44 31
88 37 98 10 20 50 173 94 367 29 124 29 127 29 460 0 282 -3 347 -17 410 -10
41 -25 109 -33 150 -24 115 -56 230 -78 280 -11 25 -44 110 -73 189 -34 90
-65 156 -84 177 -32 37 -38 67 -17 81 27 17 144 35 382 58 138 13 275 28 305
33 30 6 109 15 175 22 66 6 149 18 185 26 36 8 78 14 94 14 33 0 71 6 295 50
174 33 181 32 182 -34 0 -58 13 -124 20 -106 4 8 12 48 19 88 13 70 15 74 51
93 72 36 90 20 99 -86 1 -15 4 -13 11 10 24 72 43 102 79 129 22 16 42 38 46
48 7 23 -32 143 -54 164 -11 12 -25 14 -51 10 -91 -17 -148 -19 -157 -5 -4 8
-7 84 -7 169 2 173 -12 170 -22 -5 -9 -157 -11 -164 -50 -181 -18 -7 -87 -18
-152 -24 -65 -6 -145 -16 -178 -21 -33 -6 -114 -15 -180 -19 -161 -12 -327
-27 -520 -45 -88 -8 -197 -15 -243 -15 -108 0 -111 5 -93 163 7 62 15 136 18
164 3 29 12 58 19 64 12 10 12 14 0 28 -10 10 -18 51 -23 111 l-7 95 -11 -83
c-6 -45 -18 -89 -26 -97 -11 -11 -55 -16 -177 -21 -90 -4 -165 -11 -168 -16
-3 -4 69 -8 159 -8 146 0 166 -2 180 -18 14 -15 17 -42 17 -159 0 -165 -5
-200 -34 -218 -28 -18 -190 -31 -626 -49 -755 -32 -1225 -37 -1753 -22 -209 6
-313 13 -324 21 -14 11 -15 22 -5 106 16 135 24 297 13 279 -4 -8 -11 -44 -15
-80 -11 -113 -34 -249 -48 -278 -12 -24 -20 -27 -68 -30 -63 -4 -81 11 -74 61
2 18 11 100 20 182 25 233 23 225 68 225 48 0 51 11 9 35 l-38 21 -5 99 -5
100 -12 -66z m442 -2446 c14 -15 25 -31 25 -35 0 -3 6 -13 13 -20 7 -7 32 -40
54 -73 65 -95 94 -118 161 -126 31 -4 109 -8 173 -8 117 -1 139 -8 139 -41 0
-18 -165 -166 -233 -210 -26 -16 -47 -35 -47 -42 0 -7 10 -29 22 -48 20 -33
43 -84 125 -278 46 -108 41 -113 -69 -78 -60 19 -116 48 -197 101 -62 41 -117
75 -120 75 -12 0 -66 -61 -123 -140 -66 -90 -92 -114 -113 -107 -12 5 -15 28
-15 132 0 69 -5 158 -12 198 -11 66 -15 75 -57 114 -25 23 -68 57 -96 75 -38
25 -50 39 -50 58 0 21 9 27 65 46 36 12 92 30 124 39 98 29 108 48 135 273 10
75 31 122 56 122 8 0 26 -12 40 -27z"/>
<path d="M7035 15450 c45 -11 77 -11 70 0 -3 6 -27 9 -53 9 -42 -1 -44 -2 -17
-9z"/>
<path d="M7724 15394 c77 -7 189 -14 250 -16 93 -3 111 -1 111 12 0 13 -35 15
-250 16 l-250 2 139 -14z"/>
<path d="M11921 15358 c-7 -31 -21 -68 -32 -81 -24 -31 -24 -28 6 -63 14 -16
25 -23 25 -16 0 7 12 24 27 38 20 19 24 27 15 36 -7 7 -13 28 -13 48 -1 19 -5
49 -8 65 -7 28 -8 26 -20 -27z"/>
<path d="M15495 15240 c-12 -5 36 -9 127 -9 88 -1 149 3 153 9 8 12 -251 12
-280 0z"/>
<path d="M13023 15233 c9 -2 25 -2 35 0 9 3 1 5 -18 5 -19 0 -27 -2 -17 -5z"/>
<path d="M8351 15005 c0 -11 4 -27 9 -35 9 -13 10 -13 9 0 0 8 -4 24 -9 35
l-9 20 0 -20z"/>
<path d="M18163 14880 c0 -30 2 -43 4 -27 2 15 2 39 0 55 -2 15 -4 2 -4 -28z"/>
<path d="M9447 14843 c-10 -10 -8 -101 2 -107 11 -7 35 89 26 104 -7 12 -19
13 -28 3z"/>
<path d="M3163 14720 c2 -85 2 -85 30 -88 20 -2 27 1 27 13 0 28 -30 121 -45
141 -13 17 -15 10 -12 -66z"/>
<path d="M9084 14706 c-8 -34 3 -162 16 -185 6 -11 9 16 10 84 0 104 -13 153
-26 101z"/>
<path d="M3564 14528 c2 -42 9 -85 16 -95 8 -14 9 0 4 57 -9 105 -26 136 -20
38z"/>
<path d="M3142 14480 c-8 -39 -12 -220 -13 -639 0 -321 2 -586 5 -589 8 -7 10
69 7 248 -2 80 5 325 13 545 10 227 13 419 8 445 l-8 45 -12 -55z"/>
<path d="M3240 14428 c0 -8 5 -28 10 -44 9 -26 41 -165 71 -309 6 -27 14 -79
19 -115 5 -36 16 -94 25 -130 9 -36 20 -94 25 -130 6 -36 21 -114 35 -175 28
-126 64 -307 75 -380 5 -27 16 -84 25 -125 9 -41 21 -100 25 -130 4 -30 16
-86 25 -123 17 -64 17 -72 1 -127 -9 -33 -23 -103 -31 -157 -9 -54 -20 -120
-25 -148 -6 -27 -14 -97 -20 -155 -5 -58 -14 -130 -20 -160 -27 -141 -33 -740
-10 -985 15 -151 38 -335 49 -380 5 -22 17 -76 26 -120 20 -103 30 -138 72
-260 19 -55 38 -114 42 -130 4 -17 15 -46 24 -65 44 -95 59 -151 53 -203 -28
-271 -32 -952 -7 -1337 6 -91 18 -286 26 -435 9 -148 22 -319 30 -380 7 -60
19 -164 25 -230 10 -117 30 -289 51 -450 6 -44 12 -96 15 -115 2 -19 9 -60 14
-90 6 -30 22 -129 36 -220 14 -91 30 -192 35 -225 5 -33 13 -91 19 -130 5 -38
15 -97 23 -130 8 -33 20 -87 26 -120 7 -33 18 -89 26 -125 8 -36 19 -92 25
-125 6 -33 22 -107 35 -165 13 -58 36 -161 51 -230 14 -69 35 -159 46 -200 11
-41 27 -111 37 -155 10 -44 26 -107 35 -140 46 -162 58 -214 63 -264 6 -52 6
-53 -15 -40 -12 7 -24 10 -28 6 -8 -7 63 -195 101 -267 13 -25 38 -81 55 -124
17 -44 45 -107 62 -140 16 -34 42 -92 58 -131 15 -38 48 -110 73 -160 24 -49
48 -101 52 -115 13 -41 142 -306 178 -362 57 -91 259 -507 254 -522 -3 -8 -23
-17 -44 -21 -21 -3 -63 -9 -93 -14 -30 -6 -98 -15 -150 -21 -52 -7 -115 -17
-140 -22 -25 -6 -70 -14 -100 -18 -130 -17 -216 -35 -235 -48 -18 -13 -14 -13
40 -8 33 3 83 10 110 16 59 11 170 27 275 40 41 5 109 14 150 19 290 39 536
61 820 76 63 3 185 10 270 15 479 28 740 33 1151 21 228 -7 491 -19 584 -27
94 -8 221 -19 283 -23 63 -5 118 -13 124 -19 11 -11 0 -27 -182 -253 -259
-323 -609 -819 -805 -1139 -27 -45 -59 -94 -70 -108 -11 -15 -26 -38 -34 -52
-8 -14 -37 -61 -64 -105 -27 -44 -64 -110 -82 -146 -19 -36 -44 -79 -58 -95
-29 -36 -51 -73 -117 -199 -29 -55 -61 -111 -70 -125 -10 -14 -45 -79 -79
-145 -33 -66 -83 -159 -110 -208 -27 -48 -53 -96 -56 -107 -6 -20 -3 -20 537
-18 l543 3 40 70 c22 39 72 118 110 177 39 59 102 155 140 215 39 59 125 184
192 278 168 234 179 249 309 425 112 151 154 203 381 474 59 71 133 160 163
197 74 90 231 260 416 451 84 87 171 182 194 213 47 64 61 67 168 35 356 -108
463 -157 565 -257 136 -134 187 -245 187 -407 0 -84 10 -91 28 -18 7 30 7 53
-1 78 -9 28 -8 38 5 50 19 19 47 12 86 -21 15 -12 41 -31 58 -41 68 -42 122
-80 194 -138 41 -34 100 -80 131 -103 56 -43 144 -132 230 -234 50 -59 149
-206 149 -221 0 -5 16 -42 36 -83 30 -66 44 -114 70 -250 4 -18 -1 -46 -10
-69 -12 -30 -20 -37 -38 -34 -21 3 -32 16 -86 105 -30 49 -112 141 -112 126 0
-7 20 -37 44 -66 62 -77 116 -191 116 -246 0 -33 -39 -90 -67 -97 -31 -8 -55
8 -115 77 -45 52 -130 126 -175 153 -33 19 5 -25 67 -76 73 -62 150 -166 150
-204 0 -32 -26 -72 -59 -88 -33 -17 -139 -33 -263 -40 l-98 -5 -62 53 c-66 55
-126 92 -136 82 -3 -3 0 -6 6 -6 18 0 131 -106 175 -163 23 -30 37 -60 37 -77
0 -30 -29 -69 -65 -87 -33 -17 -116 -23 -185 -13 -36 5 -121 14 -190 20 -69 7
-195 21 -280 32 -85 10 -191 24 -235 29 -44 5 -108 14 -141 19 -34 6 -74 10
-90 10 -16 0 -58 10 -94 21 -39 13 -112 25 -185 30 -66 5 -145 11 -175 14 -41
5 -51 3 -38 -4 9 -6 57 -15 107 -20 50 -6 95 -12 100 -15 5 -3 69 -14 142 -25
160 -23 189 -33 189 -62 0 -30 -72 -146 -131 -209 l-52 -55 28 -3 c23 -3 36 5
69 44 23 27 56 63 74 81 17 18 32 38 32 46 0 7 14 35 30 61 26 40 35 47 53 42
53 -16 459 -70 677 -91 19 -2 58 -6 85 -10 166 -20 201 -19 237 6 65 44 90 83
88 136 -1 27 -1 53 -1 58 1 6 43 10 104 11 165 1 249 37 301 129 11 21 34 46
51 55 44 24 120 130 144 201 24 72 26 107 10 214 -6 42 -9 78 -6 82 4 3 30 -6
59 -19 29 -14 76 -31 103 -38 28 -7 100 -37 161 -66 61 -30 115 -54 119 -54
12 0 542 -267 573 -288 15 -11 74 -43 132 -72 58 -29 150 -81 205 -115 55 -34
116 -71 135 -81 19 -11 46 -27 60 -37 56 -39 327 -242 360 -268 24 -21 46 -29
72 -29 36 0 37 1 26 20 -20 33 5 42 97 36 44 -3 163 -8 265 -12 126 -4 212
-12 270 -25 76 -17 119 -19 400 -17 l314 3 -103 103 c-57 56 -129 119 -160
139 -31 21 -63 45 -72 55 -9 10 -79 55 -155 100 l-139 81 -80 -21 c-44 -11
-111 -30 -150 -42 -38 -12 -110 -32 -160 -45 -49 -13 -115 -33 -145 -44 -30
-12 -64 -21 -75 -21 -12 0 -61 -11 -110 -25 -184 -52 -195 -56 -195 -74 0 -16
-5 -16 -52 7 -29 14 -90 50 -136 81 -130 87 -163 108 -217 137 -27 15 -70 41
-95 59 -25 18 -97 60 -160 95 -63 34 -119 67 -123 74 -13 17 2 249 19 307 16
52 90 210 116 248 24 34 96 81 125 81 61 1 193 43 180 57 -6 5 -141 -23 -172
-36 -11 -5 -52 -14 -92 -20 -104 -16 -123 -26 -116 -65 4 -25 -3 -44 -30 -87
-19 -30 -45 -77 -58 -103 -22 -47 -23 -48 -33 -25 l-10 24 -4 -28 c-2 -15 -8
-27 -13 -27 -6 0 -7 5 -3 11 3 6 1 15 -7 19 -10 7 -10 11 0 24 8 9 20 16 27
16 8 0 14 5 14 10 0 6 -4 10 -9 10 -6 0 -13 -4 -16 -10 -3 -5 -14 -10 -23 -10
-9 0 -61 -22 -117 -48 -55 -27 -127 -57 -160 -68 -33 -10 -65 -25 -71 -33 -8
-10 -15 -11 -32 -2 -11 6 -29 11 -39 11 -11 0 -55 17 -98 39 -44 21 -91 42
-105 46 -14 4 -56 23 -94 41 -39 19 -75 34 -81 34 -6 0 -33 11 -61 24 -27 13
-66 32 -87 41 -31 15 -46 32 -78 94 -22 42 -53 100 -69 130 -25 45 -30 65 -30
123 0 38 4 99 10 136 18 128 45 470 58 759 4 89 9 163 12 165 3 3 54 29 114
59 137 68 112 79 -29 13 -55 -25 -122 -52 -150 -60 -189 -50 -215 -54 -375
-60 -164 -7 -165 -7 -216 19 -63 32 -142 98 -205 174 -41 47 -49 64 -49 98 -1
22 -5 59 -9 83 -11 58 11 350 39 512 37 211 71 355 129 550 11 36 29 99 41
140 12 41 37 118 56 170 45 127 52 160 30 160 -10 0 -27 -5 -39 -11 -11 -7
-66 -23 -121 -36 -182 -44 -283 -80 -433 -157 -162 -84 -319 -200 -426 -317
-32 -35 -76 -83 -97 -106 -22 -24 -48 -43 -60 -43 -11 0 -45 16 -75 36 -57 38
-165 73 -227 74 -54 0 -174 -46 -250 -97 -37 -25 -73 -43 -80 -40 -7 2 -19 22
-27 43 -33 92 -170 281 -278 385 -85 82 -256 210 -332 248 -69 35 -118 79
-125 112 -3 13 -8 42 -13 64 -15 80 -18 -101 -9 -525 12 -591 12 -605 -8 -690
-40 -177 -73 -244 -158 -326 -89 -88 -134 -108 -233 -108 -199 -1 -239 8 -575
129 -36 13 -109 46 -163 73 -96 50 -154 71 -143 54 3 -5 66 -39 141 -77 75
-37 140 -75 144 -84 5 -9 12 -50 15 -92 6 -57 4 -78 -6 -86 -8 -7 -172 -12
-473 -16 -253 -2 -467 -8 -475 -11 -9 -4 -24 0 -34 7 -18 13 -18 20 -3 163 17
162 14 216 -23 444 -26 156 -28 170 -36 198 -4 15 -2 22 7 22 12 0 103 -65
235 -168 106 -83 213 -152 235 -152 15 0 -50 53 -111 89 -30 18 -71 48 -90 66
-19 19 -52 46 -72 62 -165 126 -232 186 -438 392 -130 130 -262 270 -293 311
-31 41 -93 122 -138 180 -91 117 -133 178 -199 286 -25 41 -64 101 -87 134
-24 34 -43 63 -43 66 0 3 -15 28 -33 57 -39 61 -258 500 -318 637 -81 185
-122 286 -144 355 -13 39 -42 117 -65 175 -22 58 -45 136 -50 175 -5 39 -13
82 -19 95 -9 22 -10 20 -10 -19 -1 -59 17 -168 33 -206 7 -16 18 -43 24 -60 6
-16 25 -66 42 -110 18 -44 43 -109 58 -145 38 -98 60 -148 98 -222 19 -37 34
-73 34 -80 0 -10 174 -374 212 -443 6 -11 14 -27 18 -35 14 -30 36 -71 109
-197 120 -206 236 -377 419 -615 59 -76 116 -154 127 -172 11 -18 87 -99 169
-182 225 -225 219 -216 233 -363 3 -37 2 -51 -6 -47 -6 4 -11 16 -11 26 0 39
-38 109 -64 116 -27 6 -39 26 -30 49 4 8 2 15 -3 15 -14 0 -78 61 -75 71 1 5
-9 14 -23 19 -14 5 -30 20 -36 32 -6 13 -26 33 -45 45 -33 21 -34 21 -34 3 0
-11 -6 -20 -13 -20 -20 0 -52 39 -49 60 1 9 -4 23 -13 30 -8 7 -15 19 -15 26
0 8 -6 14 -13 14 -7 0 -17 10 -22 23 -6 12 -18 22 -27 22 -9 0 -20 4 -24 8 -4
4 -15 7 -24 7 -11 0 -20 11 -24 30 -4 21 -14 33 -33 40 -16 6 -40 17 -54 25
-14 8 -29 11 -33 8 -4 -4 -10 -3 -14 3 -12 19 -70 44 -102 44 -18 0 -46 6 -63
14 -46 20 -196 36 -333 36 -139 0 -166 -9 -108 -37 53 -25 56 -60 7 -69 -32
-6 -33 -7 -17 -25 9 -11 26 -19 37 -19 16 0 17 -3 7 -15 -17 -20 -33 -19 -80
5 -22 11 -54 20 -73 20 -38 0 -52 20 -63 93 -4 23 -17 60 -30 82 -12 22 -29
72 -37 112 -8 39 -18 76 -22 82 -3 6 -31 107 -61 224 -30 116 -60 230 -65 252
-6 22 -15 60 -19 85 -5 25 -22 99 -39 165 -29 118 -49 203 -92 380 -11 50 -25
117 -30 150 -5 33 -13 83 -18 110 -40 200 -89 473 -101 555 -4 30 -13 84 -19
120 -25 143 -45 308 -44 360 1 65 42 154 122 265 69 95 359 395 383 395 22 0
23 -17 3 -57 -23 -45 -56 -251 -77 -467 -9 -101 -9 -158 1 -270 14 -170 32
-308 39 -301 3 2 6 174 8 382 1 208 5 394 8 413 37 224 57 292 126 428 60 120
116 197 210 291 72 71 204 166 270 194 44 19 80 46 61 47 -23 0 -175 -75 -242
-121 -35 -23 -92 -71 -125 -106 -58 -60 -75 -82 -141 -185 -47 -74 -95 -126
-330 -363 -168 -170 -237 -247 -263 -293 -55 -97 -57 -100 -73 -80 -8 10 -19
64 -26 120 -40 354 -51 453 -62 603 -19 242 -25 410 -27 735 -2 173 -7 473
-12 665 -13 476 -13 618 1 613 6 -2 20 -26 32 -53 18 -42 131 -242 167 -295
12 -18 91 -129 163 -230 78 -108 483 -507 625 -615 22 -16 71 -56 110 -88 70
-57 228 -158 267 -171 36 -12 78 -53 72 -69 -3 -9 -25 -25 -49 -36 l-43 -21
60 7 c33 4 86 7 118 8 61 0 70 7 35 28 -13 7 -68 40 -123 73 -235 138 -442
303 -704 559 -90 88 -208 211 -262 273 -211 244 -454 658 -555 947 -25 72 -58
166 -74 210 -136 382 -185 1081 -121 1745 9 89 22 177 47 295 8 39 19 101 25
140 5 38 20 86 31 107 l22 38 -22 72 c-11 40 -33 141 -47 223 -24 140 -35 191
-66 305 -6 25 -15 74 -20 110 -12 99 -23 154 -75 375 -9 39 -20 90 -24 115 -4
25 -15 77 -24 115 -9 39 -25 120 -36 181 -11 61 -23 121 -28 135 -5 13 -13 47
-17 76 -4 29 -13 57 -21 64 -11 9 -14 8 -14 -3z m4948 -10035 c46 -30 116 -84
186 -144 5 -5 2 -18 -6 -31 -12 -18 -26 -24 -54 -25 -22 -1 -44 3 -50 8 -14
12 -68 -7 -59 -20 3 -6 -3 -15 -14 -21 -11 -6 -28 -33 -38 -60 -10 -28 -21
-50 -24 -50 -21 0 -42 354 -22 373 11 12 22 8 81 -30z m2430 -46 c2 -14 -6
-43 -16 -64 -11 -21 -34 -81 -52 -133 -18 -52 -37 -106 -43 -120 -6 -14 -11
-32 -11 -40 -1 -8 -7 -15 -15 -15 -18 0 -23 35 -6 41 10 4 10 11 -2 35 -8 16
-12 37 -9 45 8 20 -22 84 -40 84 -7 0 -19 8 -26 18 -22 31 -59 45 -118 43 -51
-1 -53 0 -30 12 30 16 148 57 250 88 41 12 79 26 85 31 15 14 30 3 33 -25z
m-2153 -177 c4 -6 1 -10 -4 -10 -14 0 -61 41 -61 52 0 10 55 -26 65 -42z
m-3759 -159 c55 -27 142 -76 193 -110 107 -73 281 -240 335 -323 17 -26 17
-27 -3 -40 -12 -7 -21 -20 -21 -30 0 -9 -4 -19 -8 -22 -9 -5 -43 29 -41 42 5
28 -2 32 -27 15 -15 -9 -22 -19 -15 -21 6 -2 11 -12 11 -21 0 -10 11 -23 25
-29 14 -6 25 -18 25 -26 0 -21 -32 -86 -42 -86 -4 0 -8 -9 -8 -20 0 -11 -4
-20 -10 -20 -5 0 -10 -12 -10 -26 0 -15 -11 -52 -24 -83 -13 -31 -27 -64 -30
-73 -8 -27 -24 -22 -46 15 -10 17 -23 37 -28 43 -6 6 -18 26 -27 45 -10 19
-29 48 -41 65 -13 17 -53 96 -89 175 -36 79 -92 198 -124 264 -32 66 -66 143
-76 170 -9 28 -25 64 -36 81 -24 39 -24 64 -1 64 9 0 62 -22 118 -49z m2480
-1059 c2 -27 21 -52 52 -63 13 -5 20 -13 17 -19 -8 -13 -35 -13 -35 0 0 6 -10
8 -24 4 -20 -5 -24 -1 -30 27 -10 51 -7 81 7 77 6 -3 13 -14 13 -26z m57 -3
c7 0 3 -4 -8 -8 -22 -9 -35 -5 -35 11 0 5 7 7 16 4 9 -3 21 -6 27 -7z m1706
-114 c40 -24 86 -47 102 -50 16 -4 31 -11 34 -16 16 -25 174 18 247 66 53 35
79 32 115 -12 35 -45 103 -165 103 -183 0 -9 -12 -11 -47 -6 -119 16 -194 29
-273 47 -132 30 -333 59 -403 59 -83 0 -99 15 -65 61 24 32 85 79 103 79 5 0
43 -20 84 -45z m-1269 21 c0 -3 -4 -8 -10 -11 -5 -3 -10 -1 -10 4 0 6 5 11 10
11 6 0 10 -2 10 -4z m3540 -351 c0 -8 -4 -15 -10 -15 -5 0 -10 7 -10 15 0 8 5
15 10 15 6 0 10 -7 10 -15z m-670 -455 c0 -5 -7 -7 -15 -4 -8 4 -15 8 -15 10
0 2 7 4 15 4 8 0 15 -4 15 -10z m1800 -1277 c0 -20 -3 -24 -11 -16 -7 7 -9 19
-6 27 10 24 17 19 17 -11z m910 -568 c0 -8 -4 -15 -10 -15 -5 0 -10 7 -10 15
0 8 5 15 10 15 6 0 10 -7 10 -15z m65 -55 c-3 -5 -12 -7 -20 -3 -21 7 -19 13
6 13 11 0 18 -4 14 -10z"/>
<path d="M5080 3700 c0 -5 5 -10 11 -10 5 0 7 5 4 10 -3 6 -8 10 -11 10 -2 0
-4 -4 -4 -10z"/>
<path d="M5117 3635 c-8 -19 9 -39 27 -32 9 4 16 13 16 21 0 18 -37 28 -43 11z"/>
<path d="M5130 3430 c0 -5 5 -10 11 -10 5 0 7 5 4 10 -3 6 -8 10 -11 10 -2 0
-4 -4 -4 -10z"/>
<path d="M16032 14335 c-13 -45 -15 -130 -3 -160 13 -34 34 112 23 160 l-9 40
-11 -40z"/>
<path d="M3591 14344 c0 -11 3 -14 6 -6 3 7 2 16 -1 19 -3 4 -6 -2 -5 -13z"/>
<path d="M1962 14330 c0 -14 2 -19 5 -12 2 6 2 18 0 25 -3 6 -5 1 -5 -13z"/>
<path d="M1936 14225 c-3 -9 -6 -22 -5 -28 0 -7 5 -1 10 12 5 13 8 26 5 28 -2
2 -6 -3 -10 -12z"/>
<path d="M3615 14190 c11 -70 34 -149 34 -120 1 44 -18 143 -30 154 -8 8 -9
-1 -4 -34z"/>
<path d="M18122 14170 c0 -14 2 -19 5 -12 2 6 2 18 0 25 -3 6 -5 1 -5 -13z"/>
<path d="M1906 14108 c-3 -13 -6 -36 -6 -53 1 -38 15 -16 24 38 7 40 -8 52
-18 15z"/>
<path d="M1884 13965 c-3 -8 -4 -20 -2 -27 3 -7 7 -1 10 15 6 29 1 36 -8 12z"/>
<path d="M3670 13944 c0 -11 7 -29 15 -40 13 -17 14 -16 3 16 -14 43 -18 49
-18 24z"/>
<path d="M1852 13833 c-14 -56 -35 -233 -29 -239 3 -3 8 14 12 38 8 51 32 174
41 204 3 12 1 25 -5 28 -6 4 -14 -9 -19 -31z"/>
<path d="M3724 13768 c10 -44 26 -81 32 -75 3 3 1 23 -6 44 -15 46 -36 71 -26
31z"/>
<path d="M15985 13668 c-3 -24 -9 -83 -14 -133 -6 -72 -14 -102 -39 -149 -40
-74 -41 -92 -5 -90 28 1 28 3 50 120 13 65 32 147 44 180 24 66 22 87 -10 103
-18 10 -20 7 -26 -31z"/>
<path d="M1806 13553 c-15 -78 -17 -113 -8 -113 6 0 14 29 17 65 8 67 1 100
-9 48z"/>
<path d="M1777 13350 c-4 -14 -6 -38 -6 -55 l1 -30 9 34 c6 18 9 43 7 55 -3
20 -4 19 -11 -4z"/>
<path d="M1751 13185 c-7 -38 -11 -83 -9 -100 4 -29 4 -29 16 13 7 23 12 68
10 100 l-3 57 -14 -70z"/>
<path d="M15815 13140 c-9 -18 -14 -34 -11 -37 2 -3 12 9 21 27 9 18 14 34 11
37 -2 3 -12 -9 -21 -27z"/>
<path d="M3132 13100 c0 -14 2 -19 5 -12 2 6 2 18 0 25 -3 6 -5 1 -5 -13z"/>
<path d="M15918 13010 c-4 -14 -8 -38 -8 -55 1 -25 2 -27 11 -12 6 9 9 34 7
55 -3 33 -4 35 -10 12z"/>
<path d="M3131 13004 c0 -11 3 -14 6 -6 3 7 2 16 -1 19 -3 4 -6 -2 -5 -13z"/>
<path d="M1725 12934 c-4 -22 -9 -52 -12 -68 -3 -18 -1 -26 5 -22 12 7 28 114
19 122 -3 4 -9 -11 -12 -32z"/>
<path d="M3130 12618 c0 -216 5 -446 14 -593 21 -331 36 -637 36 -717 0 -86
19 -218 32 -218 11 0 5 232 -13 535 -5 83 -13 281 -19 440 -5 160 -14 387 -20
505 -5 118 -10 257 -10 308 0 50 -4 92 -9 92 -6 0 -10 -143 -11 -352z"/>
<path d="M15601 12787 c-13 -21 -12 -21 5 -5 10 10 16 20 13 22 -3 3 -11 -5
-18 -17z"/>
<path d="M4365 12760 c10 -11 20 -20 23 -20 3 0 -3 9 -13 20 -10 11 -20 20
-23 20 -3 0 3 -9 13 -20z"/>
<path d="M1695 12723 c-12 -59 -22 -285 -14 -313 9 -32 9 -35 20 100 5 63 12
145 15 183 7 73 -8 94 -21 30z"/>
<path d="M4445 12695 c52 -45 66 -45 16 0 -21 19 -42 35 -47 35 -5 0 9 -16 31
-35z"/>
<path d="M15867 12595 c-4 -33 -10 -75 -13 -93 -3 -22 -2 -32 5 -28 13 9 23
80 19 136 l-3 45 -8 -60z"/>
<path d="M4670 12535 c16 -19 83 -55 102 -55 16 0 -52 47 -88 60 -24 10 -26 9
-14 -5z"/>
<path d="M18111 12493 c1 -10 5 -29 9 -43 7 -21 8 -19 9 18 1 23 -3 42 -9 42
-5 0 -10 -8 -9 -17z"/>
<path d="M15846 12402 c-8 -14 -20 -98 -12 -91 6 6 26 99 20 99 -1 0 -5 -4 -8
-8z"/>
<path d="M15818 12211 c-5 -18 -8 -52 -7 -75 l1 -41 9 33 c6 19 9 53 7 75 l-3
42 -7 -34z"/>
<path d="M15005 12180 c-3 -5 -2 -10 4 -10 5 0 13 5 16 10 3 6 2 10 -4 10 -5
0 -13 -4 -16 -10z"/>
<path d="M14774 12023 c-22 -16 -64 -40 -94 -55 -87 -42 -188 -88 -195 -88
-15 0 -98 -54 -88 -57 10 -4 96 33 133 56 8 5 71 37 140 71 69 35 134 71 145
81 29 28 3 23 -41 -8z"/>
<path d="M18172 12020 c0 -19 2 -27 5 -17 2 9 2 25 0 35 -3 9 -5 1 -5 -18z"/>
<path d="M15786 12004 c-4 -14 -5 -29 -2 -31 3 -3 8 7 12 21 3 15 4 29 1 32
-2 3 -8 -7 -11 -22z"/>
<path d="M11255 11920 c55 -25 85 -33 85 -23 0 9 -90 43 -111 42 -8 0 4 -9 26
-19z"/>
<path d="M15768 11895 c-3 -6 -9 -30 -13 -54 -9 -53 11 -49 21 4 6 36 2 66 -8
50z"/>
<path d="M15732 11661 c-14 -46 -16 -74 -3 -51 9 17 24 90 18 90 -2 0 -9 -17
-15 -39z"/>
<path d="M15706 11529 c-3 -17 -6 -48 -6 -68 1 -50 16 -21 25 47 7 57 -8 74
-19 21z"/>
<path d="M18232 11520 c0 -19 2 -27 5 -17 2 9 2 25 0 35 -3 9 -5 1 -5 -18z"/>
<path d="M19772 11485 c0 -16 2 -22 5 -12 2 9 2 23 0 30 -3 6 -5 -1 -5 -18z"/>
<path d="M19782 11400 c0 -25 3 -54 8 -65 7 -16 9 -13 8 15 0 19 -4 49 -8 65
-7 27 -8 26 -8 -15z"/>
<path d="M17695 11324 c-3 -16 -10 -48 -16 -71 -12 -54 -12 -70 1 -57 10 10
32 145 25 152 -2 3 -7 -9 -10 -24z"/>
<path d="M15677 11321 c-4 -17 -3 -21 5 -13 5 5 8 16 6 23 -3 8 -7 3 -11 -10z"/>
<path d="M18276 11118 c9 -59 14 -60 14 -5 0 26 -5 47 -10 47 -6 0 -8 -16 -4
-42z"/>
<path d="M20124 11035 c3 -71 6 -161 7 -200 0 -38 3 -64 6 -57 2 6 16 12 29
12 22 0 24 4 24 51 0 30 -4 48 -10 44 -15 -9 -23 42 -17 111 5 55 3 71 -19
116 l-26 53 6 -130z"/>
<path d="M15651 11134 c0 -11 3 -14 6 -6 3 7 2 16 -1 19 -3 4 -6 -2 -5 -13z"/>
<path d="M19841 11004 c0 -11 3 -14 6 -6 3 7 2 16 -1 19 -3 4 -6 -2 -5 -13z"/>
<path d="M15970 10911 c0 -5 -3 -17 -7 -27 -4 -11 -3 -15 4 -11 14 9 24 47 12
47 -5 0 -9 -4 -9 -9z"/>
<path d="M15606 10832 c-4 -7 -11 -49 -16 -95 -5 -46 -11 -100 -15 -120 -4
-20 -5 -37 -2 -37 7 0 50 237 45 252 -3 9 -6 9 -12 0z"/>
<path d="M19884 10697 c3 -27 11 -56 16 -65 8 -13 9 -2 4 38 -3 30 -11 60 -16
65 -7 7 -9 -5 -4 -38z"/>
<path d="M15922 10713 c-7 -12 -12 -32 -11 -45 1 -20 3 -18 15 11 17 38 13 67
-4 34z"/>
<path d="M18326 10709 c-4 -10 -2 -37 5 -60 16 -54 24 -24 11 36 -7 29 -11 35
-16 24z"/>
<path d="M20124 10531 c3 -18 6 -40 6 -48 0 -8 5 -11 11 -8 12 8 2 65 -13 80
-7 7 -9 -1 -4 -24z"/>
<path d="M15552 10499 c-14 -59 -16 -137 -3 -104 9 22 25 155 19 155 -3 0 -10
-23 -16 -51z"/>
<path d="M9197 10505 c10 -13 22 -25 27 -25 5 0 -1 11 -14 25 -30 32 -36 32
-13 0z"/>
<path d="M8951 10484 c-22 -28 -28 -50 -11 -39 11 7 43 65 36 65 -3 0 -14 -12
-25 -26z"/>
<path d="M15867 10497 c-4 -10 -7 -28 -7 -40 1 -20 2 -20 11 -4 6 10 9 28 7
40 -3 20 -4 20 -11 4z"/>
<path d="M8681 10475 c0 -11 4 -27 9 -35 9 -13 10 -13 9 0 0 8 -4 24 -9 35
l-9 20 0 -20z"/>
<path d="M17532 10450 c0 -19 2 -27 5 -17 2 9 2 25 0 35 -3 9 -5 1 -5 -18z"/>
<path d="M8887 10380 c-15 -27 -32 -52 -38 -55 -5 -4 -18 -23 -29 -44 -20 -40
-49 -59 -60 -41 -4 7 -13 36 -19 66 -14 60 -38 89 -28 33 20 -116 28 -270 25
-480 -1 -130 0 -235 3 -233 10 6 24 231 24 389 0 164 1 169 69 257 42 56 88
137 84 149 -2 5 -16 -13 -31 -41z"/>
<path d="M19942 10335 c0 -27 3 -59 8 -70 11 -27 11 59 0 95 -6 20 -8 14 -8
-25z"/>
<path d="M15531 10334 c0 -11 3 -14 6 -6 3 7 2 16 -1 19 -3 4 -6 -2 -5 -13z"/>
<path d="M15810 10254 c-13 -32 -13 -61 -1 -48 11 11 25 74 17 74 -4 0 -11
-12 -16 -26z"/>
<path d="M18376 10238 c4 -24 10 -61 14 -83 7 -36 8 -34 9 27 1 69 -5 98 -20
98 -5 0 -6 -19 -3 -42z"/>
<path d="M9477 10212 c-18 -20 -23 -57 -8 -67 10 -6 35 59 29 76 -2 6 -11 2
-21 -9z"/>
<path d="M17482 10200 c0 -14 2 -19 5 -12 2 6 2 18 0 25 -3 6 -5 1 -5 -13z"/>
<path d="M19971 10144 c0 -11 3 -14 6 -6 3 7 2 16 -1 19 -3 4 -6 -2 -5 -13z"/>
<path d="M19992 10010 c0 -19 3 -44 8 -55 7 -17 9 -15 8 10 0 17 -4 41 -8 55
-7 23 -8 22 -8 -10z"/>
<path d="M17427 9957 c-4 -10 -7 -28 -7 -40 1 -20 2 -20 11 -4 6 10 9 28 7 40
-3 20 -4 20 -11 4z"/>
<path d="M3076 9895 c-3 -9 -1 -46 4 -83 5 -37 10 -70 10 -74 0 -5 5 -8 11 -8
8 0 10 24 5 83 -8 82 -18 112 -30 82z"/>
<path d="M18424 9873 c3 -16 8 -55 12 -88 10 -94 26 -103 19 -10 -4 44 -9 90
-12 103 -8 32 -26 27 -19 -5z"/>
<path d="M15706 9864 c-9 -24 -7 -66 3 -60 11 7 20 76 10 76 -4 0 -10 -7 -13
-16z"/>
<path d="M17387 9790 c-15 -47 -27 -96 -27 -110 0 -14 -5 -41 -10 -61 -6 -20
-19 -83 -30 -140 -11 -57 -27 -129 -35 -159 -20 -72 -31 -168 -18 -155 12 12
35 102 63 250 6 33 20 94 30 135 10 41 24 104 30 140 6 36 16 86 22 112 17 83
3 75 -25 -12z"/>
<path d="M20025 9795 c5 -27 9 -70 10 -95 1 -25 12 -103 25 -175 19 -98 26
-123 31 -100 3 17 1 39 -4 49 -5 11 -16 72 -23 135 -17 141 -31 221 -40 230
-4 3 -3 -16 1 -44z"/>
<path d="M15447 9815 c-3 -11 -9 -42 -12 -70 -8 -62 11 -42 21 22 7 47 1 80
-9 48z"/>
<path d="M15682 9735 c-17 -37 -14 -45 4 -12 9 16 14 31 11 33 -2 2 -9 -7 -15
-21z"/>
<path d="M15661 9668 c0 -9 -4 -25 -7 -35 -5 -17 -5 -17 6 0 6 10 9 25 7 35
-4 15 -5 15 -6 0z"/>
<path d="M3112 9560 c0 -58 3 -141 9 -185 20 -164 29 -253 39 -365 6 -63 15
-139 20 -170 5 -30 15 -90 21 -133 14 -91 34 -118 25 -33 -3 31 -9 82 -12 114
-3 31 -12 79 -20 106 -8 27 -14 76 -14 107 0 72 -17 249 -29 309 -13 60 -22
135 -31 255 l-7 100 -1 -105z"/>
<path d="M15626 9544 c-4 -9 -4 -19 -1 -22 2 -3 7 3 11 12 4 9 4 19 1 22 -2 3
-7 -3 -11 -12z"/>
<path d="M18488 9410 c-6 -16 7 -128 16 -138 8 -7 6 64 -2 113 -5 24 -10 34
-14 25z"/>
<path d="M1704 9236 c-8 -38 -7 -48 8 -68 l18 -23 -1 45 c-1 25 -4 55 -8 68
-5 20 -8 17 -17 -22z"/>
<path d="M15548 9267 c-12 -29 -10 -63 3 -50 6 6 9 23 7 39 -2 24 -4 26 -10
11z"/>
<path d="M15321 9049 c-12 -68 -20 -88 -51 -127 -66 -82 -218 -217 -322 -286
-29 -19 -87 -62 -128 -96 -41 -33 -90 -70 -107 -83 -32 -21 -42 -37 -25 -37 8
0 156 107 242 174 25 20 65 51 89 69 55 40 94 71 161 125 28 23 58 42 65 42
25 0 35 -25 25 -61 -6 -18 -10 -52 -10 -74 1 -57 17 -25 30 56 10 72 34 214
49 304 6 32 7 63 3 67 -5 5 -14 -28 -21 -73z"/>
<path d="M1727 9083 c8 -50 13 -55 13 -10 0 20 -4 38 -9 42 -6 3 -7 -10 -4
-32z"/>
<path d="M3836 9044 c-3 -8 -1 -25 5 -36 8 -16 8 -22 -2 -29 -11 -6 -11 -11
-1 -21 7 -7 12 -41 12 -90 0 -60 3 -78 14 -78 9 0 17 18 23 48 6 34 13 47 25
46 20 -2 34 44 19 59 -8 8 -11 6 -11 -6 0 -22 -16 -22 -24 0 -8 21 8 31 39 26
17 -4 25 -14 29 -41 14 -79 13 -87 -11 -86 -16 0 -23 -5 -23 -17 0 -10 -7 -22
-16 -27 -13 -8 -15 -18 -10 -55 7 -47 26 -75 26 -38 0 11 5 23 10 26 6 3 10
16 11 28 0 14 2 16 6 7 2 -8 8 -24 13 -35 5 -11 11 -36 12 -55 3 -32 5 -35 33
-32 22 2 26 0 15 -7 -8 -6 -11 -13 -7 -17 3 -4 13 -1 21 5 9 8 29 10 53 6 21
-4 34 -3 28 2 -14 11 -13 36 3 46 16 11 15 32 -2 46 -10 8 -13 23 -9 47 5 32
4 34 -21 34 -17 0 -29 7 -32 18 -3 9 -10 26 -15 37 -4 11 -10 36 -11 55 -2 26
-8 36 -23 38 -11 2 -27 10 -35 17 -8 8 -31 15 -50 17 -33 3 -35 6 -38 41 -3
31 -7 37 -27 37 -12 0 -26 -7 -29 -16z m164 -130 c0 -8 -4 -12 -10 -9 -5 3
-10 13 -10 21 0 8 5 12 10 9 6 -3 10 -13 10 -21z m-115 -3 c-3 -6 -11 -11 -16
-11 -5 0 -4 6 3 14 14 16 24 13 13 -3z"/>
<path d="M17210 8966 c0 -18 -4 -46 -9 -62 -17 -53 -22 -84 -13 -84 12 0 30
63 37 128 4 33 2 52 -5 52 -5 0 -10 -15 -10 -34z"/>
<path d="M18542 8940 c0 -30 3 -75 7 -100 8 -41 9 -39 9 30 0 41 -4 86 -8 100
-6 19 -8 12 -8 -30z"/>
<path d="M1742 8890 c0 -58 14 -124 18 -85 3 33 -1 82 -10 112 -7 23 -8 18 -8
-27z"/>
<path d="M16876 8878 c-10 -40 -6 -54 9 -28 8 14 14 31 15 38 0 21 -17 13 -24
-10z"/>
<path d="M15443 8875 c-3 -9 -3 -18 -1 -21 3 -3 8 4 11 16 6 23 -1 27 -10 5z"/>
<path d="M17161 8743 c-6 -21 -16 -56 -22 -78 -11 -42 -45 -200 -74 -345 -10
-47 -30 -128 -46 -180 -16 -52 -35 -129 -44 -172 -8 -42 -19 -87 -23 -100 -5
-12 -15 -61 -22 -108 -7 -47 -24 -116 -37 -155 -14 -38 -34 -110 -45 -160 -31
-138 -32 -149 -20 -141 6 4 14 23 17 44 11 69 36 140 52 146 24 9 39 -20 57
-109 31 -153 48 -207 60 -195 14 14 -31 240 -71 359 l-28 82 18 47 c10 26 24
74 31 107 8 33 23 96 34 140 33 128 51 206 61 270 5 33 20 101 34 150 53 190
100 435 84 435 -4 0 -11 -17 -16 -37z"/>
<path d="M16851 8754 c0 -11 3 -14 6 -6 3 7 2 16 -1 19 -3 4 -6 -2 -5 -13z"/>
<path d="M18561 8744 c0 -11 3 -14 6 -6 3 7 2 16 -1 19 -3 4 -6 -2 -5 -13z"/>
<path d="M15394 8715 c-6 -11 -14 -40 -17 -65 l-5 -45 19 44 c22 49 24 104 3
66z"/>
<path d="M16836 8685 c-3 -9 -6 -24 -5 -33 0 -9 5 -4 10 12 9 32 6 48 -5 21z"/>
<path d="M18572 8675 c0 -11 4 -31 8 -45 l8 -25 0 25 c0 14 -3 34 -8 45 l-9
20 1 -20z"/>
<path d="M15235 8563 c-15 -35 -57 -281 -52 -302 2 -9 7 2 12 24 4 22 15 67
25 100 17 56 36 195 26 195 -2 0 -7 -8 -11 -17z"/>
<path d="M3227 8553 c-7 -11 11 -108 18 -101 2 2 0 28 -3 58 -4 31 -11 50 -15
43z"/>
<path d="M18595 8481 c2 -47 10 -89 16 -95 8 -8 9 6 4 56 -11 109 -26 137 -20
39z"/>
<path d="M16773 8455 c-19 -79 -25 -115 -20 -115 10 0 38 112 35 138 -3 22 -6
17 -15 -23z"/>
<path d="M1798 8465 c-8 -8 3 -109 14 -120 6 -6 7 14 2 55 -7 70 -8 73 -16 65z"/>
<path d="M3254 8365 c16 -152 24 -203 35 -221 10 -16 11 -12 7 26 -4 25 -11
83 -16 129 -6 46 -15 91 -21 100 -7 12 -9 2 -5 -34z"/>
<path d="M14600 8382 c-36 -17 -120 -74 -120 -83 0 -14 44 7 99 46 59 43 68
58 21 37z"/>
<path d="M16722 8265 c-6 -22 -12 -50 -12 -63 0 -13 -5 -32 -11 -43 -5 -11 -9
-28 -7 -37 6 -26 50 126 46 156 -3 25 -5 23 -16 -13z"/>
<path d="M1826 8215 c4 -38 11 -74 16 -80 6 -6 7 10 2 45 -11 88 -24 113 -18
35z"/>
<path d="M17137 8246 c-3 -8 -2 -41 3 -73 12 -77 36 -297 50 -458 6 -71 15
-164 20 -205 13 -101 46 -461 60 -640 6 -80 15 -175 21 -212 5 -37 9 -113 9
-169 0 -55 7 -157 16 -224 16 -118 15 -163 -5 -151 -5 3 -12 21 -15 39 -21
111 -138 316 -211 369 -25 18 -60 45 -78 60 -17 15 -35 24 -39 20 -4 -4 -23
-52 -43 -107 -39 -110 -102 -240 -141 -290 -13 -17 -24 -36 -24 -41 0 -6 -21
-35 -48 -65 -26 -29 -61 -72 -77 -94 -47 -64 -133 -145 -153 -145 -28 0 -34
24 -17 68 23 61 47 160 43 174 -6 18 -37 -32 -50 -79 -5 -21 -13 -58 -18 -83
-9 -49 -37 -144 -106 -365 -24 -77 -49 -162 -55 -190 -6 -27 -20 -67 -31 -88
-19 -37 -68 -182 -68 -201 0 -9 -105 -332 -144 -446 -9 -25 -48 -144 -87 -265
-40 -121 -75 -224 -79 -230 -9 -12 -59 -149 -70 -190 -12 -47 -67 -200 -81
-226 -7 -13 -27 -64 -44 -114 -18 -49 -42 -112 -53 -140 -11 -27 -43 -106 -70
-175 -43 -108 -91 -224 -121 -295 -47 -110 -71 -172 -71 -180 0 -5 -22 -55
-50 -110 -27 -56 -56 -119 -64 -140 -7 -22 -37 -89 -66 -150 -51 -109 -66
-142 -131 -285 -57 -126 -93 -183 -126 -203 -19 -10 -68 -22 -120 -28 -253
-28 -249 -30 -197 68 19 36 43 77 53 92 26 37 341 673 341 689 0 7 20 52 44
100 23 48 47 98 51 112 4 14 23 59 42 100 33 72 136 329 192 480 16 41 34 91
41 110 7 19 34 96 59 170 26 74 54 151 63 170 9 19 37 98 62 175 25 77 50 147
56 157 9 16 54 163 71 230 5 20 18 60 29 89 28 71 184 542 200 604 7 28 17 55
21 60 4 6 13 33 19 60 7 28 20 75 30 105 10 30 23 80 30 110 6 30 15 64 20 75
31 72 85 275 73 275 -6 0 -23 -49 -44 -125 -27 -94 -90 -295 -155 -490 -29
-88 -63 -196 -75 -240 -11 -44 -44 -145 -71 -225 -27 -80 -67 -199 -88 -265
-81 -246 -161 -479 -169 -489 -5 -6 -28 -69 -51 -141 -24 -71 -49 -140 -57
-151 -7 -12 -22 -50 -32 -85 -16 -53 -119 -311 -295 -739 -15 -36 -49 -110
-77 -166 -27 -55 -49 -105 -49 -110 0 -13 -179 -365 -195 -384 -7 -8 -31 -52
-52 -97 -22 -44 -53 -103 -70 -130 -17 -26 -47 -79 -67 -116 -47 -86 -87 -131
-128 -147 -18 -7 -42 -16 -53 -20 -43 -18 -182 -62 -220 -70 -22 -5 -54 -13
-71 -19 -61 -18 -65 8 -12 86 15 23 37 63 48 89 11 26 34 67 51 92 43 63 249
480 299 603 23 57 53 128 67 157 13 28 23 60 21 70 -2 10 -13 -7 -27 -43 -12
-33 -26 -65 -31 -70 -17 -21 -89 -170 -96 -200 -10 -42 -262 -544 -291 -579
-13 -16 -36 -52 -50 -80 -56 -110 -122 -166 -242 -201 -100 -30 -136 -44 -129
-51 3 -2 70 11 149 30 79 19 167 39 194 45 122 27 249 66 430 134 22 8 94 23
160 32 206 30 317 11 518 -87 54 -26 103 -48 109 -48 14 0 306 -147 343 -173
16 -12 58 -37 94 -55 69 -36 199 -121 321 -211 100 -73 281 -256 356 -361 159
-220 179 -296 210 -802 6 -87 8 -98 25 -98 17 0 19 8 19 68 -1 147 -19 438
-28 462 -5 14 -15 55 -22 91 -11 63 -10 70 20 160 18 52 43 117 57 144 14 28
36 78 49 111 12 34 31 76 41 95 11 19 25 50 32 69 7 19 38 89 69 156 43 91 64
126 90 145 48 34 260 219 301 263 19 20 44 36 54 36 22 0 22 20 -2 -545 -5
-126 -15 -351 -21 -500 -16 -408 -28 -655 -36 -707 -7 -48 -7 -48 23 -48 l29
0 13 297 c6 164 16 408 22 542 5 134 12 247 14 251 2 4 9 175 15 381 6 205 15
389 20 409 6 19 28 55 51 79 177 193 343 487 392 696 28 121 57 300 57 355 0
45 -33 218 -66 345 -32 122 -106 270 -219 440 -46 68 -86 139 -89 157 -3 18
-13 310 -22 648 -16 655 -18 681 -58 1005 -14 116 -30 314 -36 440 -17 364
-30 565 -50 775 -11 107 -24 258 -30 335 -5 77 -15 176 -20 220 -6 44 -19 175
-30 290 -12 116 -23 217 -25 225 -6 18 -25 177 -34 275 -5 53 -10 71 -22 73
-9 2 -19 -4 -22 -12z m-91 -1747 c62 -49 71 -61 133 -191 60 -123 102 -257
127 -398 7 -41 20 -106 29 -145 8 -38 20 -119 25 -180 5 -60 14 -141 20 -180
28 -197 46 -549 59 -1140 7 -360 3 -336 75 -440 125 -180 190 -311 234 -475
61 -228 65 -454 12 -645 -11 -38 -25 -90 -30 -115 -12 -48 -96 -225 -145 -303
-79 -126 -222 -303 -340 -423 -146 -146 -293 -265 -334 -267 l-26 -2 -7 120
c-10 178 -46 292 -141 444 -36 59 -147 200 -202 257 -48 51 -300 238 -372 276
-43 22 -85 47 -93 54 -17 14 -254 134 -314 158 -21 9 -45 16 -52 16 -7 0 -42
13 -76 28 -35 16 -78 34 -95 41 -20 8 -33 21 -33 31 0 21 34 121 60 177 11 24
20 47 20 53 0 6 9 29 19 53 11 23 26 62 34 87 14 40 57 153 162 421 18 47 68
189 111 315 42 126 80 234 84 239 7 9 73 207 138 415 16 52 57 181 90 285 51
161 104 333 143 460 5 17 15 57 23 90 23 97 63 163 137 225 126 106 282 310
363 474 32 65 64 137 72 159 13 37 28 56 45 57 3 0 24 -14 45 -31z m-1471
-3593 c157 -55 207 -77 360 -155 259 -132 414 -239 570 -396 78 -79 195 -229
195 -251 0 -4 7 -15 15 -24 38 -42 78 -193 97 -359 17 -156 4 -249 -50 -363
-23 -48 -42 -93 -42 -100 0 -7 -20 -53 -45 -103 -24 -49 -45 -96 -45 -103 0
-7 -11 -37 -24 -65 -13 -29 -36 -80 -51 -115 -15 -34 -31 -62 -35 -62 -4 0
-42 53 -86 117 -84 126 -219 274 -324 358 -36 29 -124 91 -195 139 -72 47
-135 90 -140 94 -6 4 -28 17 -50 29 -84 44 -120 65 -131 74 -7 5 -39 20 -73
33 -33 14 -73 33 -88 44 -16 11 -39 23 -53 27 -14 4 -65 27 -115 50 -49 23
-129 59 -177 80 -49 21 -88 43 -88 50 0 6 21 52 46 101 25 49 67 136 93 194
86 187 104 225 116 240 7 8 24 49 39 90 15 41 42 104 60 140 19 36 36 77 40
91 3 15 22 61 42 103 28 58 41 76 53 72 9 -3 48 -16 86 -30z"/>
<path d="M15610 2730 c0 -5 9 -10 21 -10 11 0 17 5 14 10 -3 6 -13 10 -21 10
-8 0 -14 -4 -14 -10z"/>
<path d="M15740 2641 c0 -23 24 -44 46 -39 29 5 27 26 -5 42 -38 20 -41 20
-41 -3z"/>
<path d="M15698 2607 c12 -13 22 -26 22 -29 0 -7 -53 -16 -140 -24 -114 -10
-145 -18 -148 -38 -2 -10 2 -23 10 -27 16 -11 218 -10 218 1 0 3 16 7 35 8 20
1 46 8 58 17 12 8 31 15 44 15 17 0 23 7 29 35 7 42 2 52 -17 32 -21 -20 -86
-10 -92 14 -3 10 -13 19 -23 19 -16 0 -15 -3 4 -23z"/>
<path d="M15905 2570 c3 -5 8 -10 11 -10 2 0 4 5 4 10 0 6 -5 10 -11 10 -5 0
-7 -4 -4 -10z"/>
<path d="M15953 2553 c-9 -3 -11 -14 -6 -31 6 -25 5 -26 -11 -13 -15 13 -16
12 -7 -13 10 -25 9 -26 -22 -26 -30 0 -32 2 -32 37 0 46 -23 56 -31 14 -4 -17
-12 -35 -19 -41 -7 -6 -11 -19 -8 -29 3 -10 0 -22 -6 -25 -6 -4 -11 -2 -11 3
0 6 -7 11 -15 11 -7 0 -19 8 -25 18 -10 16 -10 16 -20 0 -14 -22 -68 -24 -76
-3 -4 8 -11 12 -16 8 -6 -3 -46 -5 -89 -4 -77 2 -91 -3 -68 -26 8 -8 8 -16 0
-30 -10 -17 -10 -16 -11 5 0 14 -11 29 -32 42 -37 23 -49 18 -24 -9 14 -15 15
-24 7 -40 -6 -11 -11 -50 -11 -86 l0 -67 30 4 c17 3 27 1 22 -4 -4 -4 -35 -11
-69 -14 l-61 -7 -4 -96 c-5 -97 2 -125 24 -103 14 14 118 16 118 2 0 -5 -13
-10 -30 -10 -29 0 -30 -1 -30 -50 l0 -50 40 0 c38 0 40 2 40 30 0 17 5 30 10
30 6 0 10 -9 10 -19 0 -11 8 -27 17 -37 16 -15 43 -60 43 -70 0 -12 -29 -1
-45 16 -10 11 -22 17 -27 14 -15 -10 43 -64 68 -64 12 0 24 -7 28 -15 3 -8 13
-15 23 -15 10 0 14 4 8 8 -6 4 -16 19 -24 35 -11 21 -12 30 -3 39 9 9 17 7 35
-10 19 -18 35 -22 90 -22 70 0 87 -11 87 -59 0 -16 8 -20 38 -23 35 -3 37 -5
40 -40 3 -36 5 -38 37 -38 20 0 35 -6 39 -15 3 -8 14 -15 24 -15 21 0 51 -31
72 -75 23 -47 37 -58 59 -45 11 5 36 10 55 10 34 0 36 -2 36 -35 0 -30 -3 -35
-23 -35 -13 0 -29 -6 -36 -12 -10 -11 -16 -8 -32 12 -17 21 -19 22 -10 3 13
-26 14 -36 2 -29 -5 3 -11 -3 -14 -13 -5 -21 -56 -34 -74 -19 -23 19 -14 0 12
-27 14 -14 32 -25 39 -25 19 0 39 27 31 40 -7 11 11 40 26 40 17 0 31 -41 19
-56 -10 -11 -9 -15 4 -20 9 -3 16 -13 16 -22 0 -13 3 -12 15 4 8 10 15 28 15
39 0 12 6 27 12 33 10 10 10 15 0 21 -10 6 -8 10 9 14 13 3 29 1 36 -5 8 -6
35 -12 61 -12 l47 -1 -3 -42 -2 -43 44 0 44 0 -9 38 c-5 20 -9 40 -9 44 0 4
-11 8 -25 10 -14 2 -25 6 -25 11 0 4 0 21 0 38 0 28 2 30 33 27 29 -3 32 -6
33 -37 0 -30 4 -36 29 -43 18 -4 34 -3 42 4 17 14 46 -9 38 -30 -4 -12 -3 -13
10 -2 21 18 19 41 -5 47 -11 3 -20 13 -20 23 0 10 9 20 20 23 11 3 20 13 20
23 0 9 7 26 17 36 15 17 15 19 0 36 -11 12 -17 36 -17 65 0 35 -4 47 -15 47
-8 0 -15 5 -15 10 0 6 8 10 18 10 14 0 15 2 2 10 -10 6 -13 23 -11 53 3 48 -9
66 -29 42 -20 -24 -30 -17 -23 17 6 30 5 31 -25 25 -18 -4 -34 -2 -38 4 -3 6
-17 14 -30 19 -17 7 -24 17 -24 35 0 14 -4 25 -10 25 -5 0 -10 7 -10 15 0 8
-8 15 -18 15 -25 0 -42 19 -42 47 0 21 -5 23 -49 23 -30 0 -53 5 -61 14 -6 8
-19 12 -27 9 -19 -8 -43 22 -43 53 0 13 8 24 20 27 14 4 20 14 20 35 0 25 -3
29 -20 25 -11 -3 -20 -1 -20 5 0 5 -9 12 -20 15 -15 4 -20 14 -20 41 0 29 -4
36 -19 36 -11 0 -22 -8 -26 -19 -4 -15 -15 -18 -60 -18 l-55 1 0 58 c0 42 4
58 14 58 9 0 12 8 8 25 -2 15 0 25 7 25 6 0 11 -4 11 -10 0 -21 28 -9 32 15 3
14 2 25 -1 25 -8 0 -31 50 -31 67 0 13 -6 15 -27 6z m-463 -483 c0 -5 -14 -7
-32 -3 -46 8 -48 13 -5 13 21 0 37 -4 37 -10z m965 -290 c0 -20 -74 -27 -86
-9 -12 21 -3 26 43 25 31 -1 43 -5 43 -16z m-399 -52 c-7 -37 -14 -47 -24 -31
-4 6 -16 12 -27 14 -12 3 -21 14 -23 27 -3 20 1 22 39 22 41 0 41 0 35 -32z
m417 -17 c22 -21 17 -42 -5 -23 -8 6 -34 12 -58 14 -35 2 -46 7 -48 22 -4 17
1 18 43 14 29 -4 55 -14 68 -27z m84 -78 c-2 -16 -4 -5 -4 22 0 28 2 40 4 28
2 -13 2 -35 0 -50z m-97 7 c0 -40 0 -41 -36 -38 -41 3 -53 20 -30 43 9 9 16
21 16 26 0 5 11 9 25 9 23 0 25 -4 25 -40z"/>
<path d="M15325 2450 c-3 -5 -1 -10 4 -10 6 0 11 5 11 10 0 6 -2 10 -4 10 -3
0 -8 -4 -11 -10z"/>
<path d="M16072 2433 c-6 -2 -10 -9 -6 -14 8 -14 21 -11 21 6 0 8 -1 15 -1 14
-1 0 -7 -3 -14 -6z"/>
<path d="M15315 2362 c-16 -12 -16 -69 0 -69 8 0 12 4 9 9 -3 4 0 8 5 8 6 0
11 14 11 30 0 30 -6 36 -25 22z"/>
<path d="M16132 2357 c-11 -13 -10 -17 7 -26 25 -14 64 -14 56 -1 -3 6 -15 10
-25 10 -10 0 -20 7 -22 17 -3 15 -4 15 -16 0z"/>
<path d="M16220 2340 c0 -5 5 -10 10 -10 6 0 10 5 10 10 0 6 -4 10 -10 10 -5
0 -10 -4 -10 -10z"/>
<path d="M15269 2293 c-13 -16 -12 -17 4 -4 16 13 21 21 13 21 -2 0 -10 -8
-17 -17z"/>
<path d="M16304 2295 c-4 -8 -4 -22 0 -30 3 -8 1 -15 -4 -15 -6 0 -10 12 -10
28 l0 27 -25 -29 c-14 -16 -25 -24 -25 -17 0 7 -5 9 -11 6 -22 -14 -1 -29 37
-27 56 4 94 -12 94 -41 0 -13 -6 -29 -12 -36 -11 -10 -9 -15 6 -27 11 -8 25
-14 30 -14 6 0 3 5 -6 11 -19 11 -24 35 -8 41 19 6 -5 62 -31 70 -22 7 -22 7
4 4 31 -4 44 12 33 40 -5 13 -9 14 -21 4 -12 -10 -16 -9 -21 4 -8 20 -23 21
-30 1z"/>
<path d="M15220 2264 c0 -8 5 -12 10 -9 6 3 10 10 10 16 0 5 -4 9 -10 9 -5 0
-10 -7 -10 -16z"/>
<path d="M16400 2155 c-11 -13 -8 -15 14 -15 16 0 26 5 26 15 0 8 -6 15 -14
15 -7 0 -19 -7 -26 -15z"/>
<path d="M16222 2143 c5 -26 38 -29 38 -4 0 15 -6 21 -21 21 -14 0 -19 -5 -17
-17z"/>
<path d="M16430 2110 c0 -5 9 -10 21 -10 11 0 17 5 14 10 -3 6 -13 10 -21 10
-8 0 -14 -4 -14 -10z"/>
<path d="M16559 2085 c-3 -2 -16 -6 -30 -8 -19 -3 -24 -10 -26 -38 -2 -29 -1
-30 5 -9 5 14 18 27 32 30 13 3 25 11 28 18 4 12 -1 16 -9 7z"/>
<path d="M16335 2050 c3 -5 10 -10 16 -10 5 0 9 5 9 10 0 6 -7 10 -16 10 -8 0
-12 -4 -9 -10z"/>
<path d="M16451 2047 c-14 -18 -5 -58 22 -97 12 -18 16 -19 26 -6 14 17 7 36
-14 36 -9 0 -15 14 -17 42 -3 36 -5 39 -17 25z"/>
<path d="M16555 2020 c-4 -6 -3 -16 3 -22 6 -6 12 -6 17 2 4 6 3 16 -3 22 -6
6 -12 6 -17 -2z"/>
<path d="M16620 1922 c0 -14 6 -22 16 -22 14 0 15 3 3 18 -7 9 -15 19 -16 21
-2 2 -3 -5 -3 -17z"/>
<path d="M16680 1919 c0 -18 2 -19 15 -9 8 7 15 16 15 21 0 5 -7 9 -15 9 -9 0
-15 -9 -15 -21z"/>
<path d="M15222 1919 c2 -6 8 -10 13 -10 5 0 11 4 13 10 2 6 -4 11 -13 11 -9
0 -15 -5 -13 -11z"/>
<path d="M15366 1881 c-3 -5 4 -9 17 -8 12 0 31 -3 42 -7 20 -8 20 -7 1 8 -22
18 -52 21 -60 7z"/>
<path d="M15506 1814 c-8 -22 1 -31 16 -16 9 9 9 15 1 23 -7 7 -12 5 -17 -7z"/>
<path d="M15660 1793 c1 -24 19 -30 78 -25 84 6 77 26 -11 30 -37 2 -67 -1
-67 -5z"/>
<path d="M16595 1760 c3 -5 8 -10 11 -10 2 0 4 5 4 10 0 6 -5 10 -11 10 -5 0
-7 -4 -4 -10z"/>
<path d="M16638 1714 c-23 -12 -28 -21 -28 -55 0 -33 4 -41 26 -49 14 -6 26
-10 27 -10 1 0 2 29 2 65 0 36 0 65 0 65 0 -1 -12 -8 -27 -16z"/>
<path d="M16730 1714 c0 -9 7 -14 17 -12 25 5 28 28 4 28 -12 0 -21 -6 -21
-16z"/>
<path d="M15830 1669 c0 -15 50 -69 64 -69 5 0 18 -7 28 -17 10 -9 18 -12 18
-7 0 5 -25 31 -55 57 -30 27 -55 43 -55 36z"/>
<path d="M15960 1580 c0 -27 3 -30 31 -30 24 0 32 -6 41 -30 10 -29 50 -51 66
-36 3 4 -4 9 -16 13 -14 3 -22 13 -22 26 0 25 -59 87 -82 87 -13 0 -18 -8 -18
-30z"/>
<path d="M16600 1468 c0 -19 2 -20 10 -8 13 19 13 30 0 30 -5 0 -10 -10 -10
-22z"/>
<path d="M16660 1430 c0 -11 5 -20 10 -20 6 0 10 9 10 20 0 11 -4 20 -10 20
-5 0 -10 -9 -10 -20z"/>
<path d="M16494 1399 c-20 -26 -23 -47 -9 -66 12 -16 14 -16 20 -1 4 9 5 31 3
49 -2 26 -5 29 -14 18z"/>
<path d="M16580 1374 c0 -8 5 -12 10 -9 6 4 8 11 5 16 -9 14 -15 11 -15 -7z"/>
<path d="M16660 1310 c0 -5 5 -10 10 -10 6 0 10 5 10 10 0 6 -4 10 -10 10 -5
0 -10 -4 -10 -10z"/>
<path d="M16275 1271 c-6 -11 9 -23 19 -14 9 9 7 23 -3 23 -6 0 -12 -4 -16 -9z"/>
<path d="M16620 1269 c0 -5 5 -7 10 -4 6 3 10 8 10 11 0 2 -4 4 -10 4 -5 0
-10 -5 -10 -11z"/>
<path d="M16405 1261 c-7 -12 12 -24 25 -16 11 7 4 25 -10 25 -5 0 -11 -4 -15
-9z"/>
<path d="M15156 8154 c-8 -29 -3 -39 13 -29 13 8 15 55 2 55 -5 0 -12 -12 -15
-26z"/>
<path d="M15241 8164 c0 -11 3 -14 6 -6 3 7 2 16 -1 19 -3 4 -6 -2 -5 -13z"/>
<path d="M14219 8140 c-31 -25 -13 -26 26 0 20 13 24 20 14 20 -9 0 -27 -9
-40 -20z"/>
<path d="M1844 8059 c2 -37 9 -75 15 -85 10 -15 11 -7 6 44 -9 92 -26 126 -21
41z"/>
<path d="M16673 8067 c-7 -15 -13 -40 -12 -55 1 -27 1 -26 15 7 8 18 14 43 12
54 -3 19 -4 19 -15 -6z"/>
<path d="M3308 8035 c2 -19 9 -35 14 -35 6 0 8 10 4 23 -3 12 -6 28 -6 35 0 6
-4 12 -8 12 -4 0 -6 -16 -4 -35z"/>
<path d="M13810 7929 c-151 -78 -279 -145 -285 -151 -16 -16 44 0 74 21 14 9
64 34 111 56 47 21 92 43 100 50 8 6 31 18 50 25 19 8 51 24 70 35 19 12 46
25 58 29 24 8 122 66 122 72 0 13 -54 -12 -300 -137z"/>
<path d="M18640 8033 c1 -21 7 -51 16 -68 14 -30 14 -30 9 19 -3 27 -5 57 -5
67 0 11 -4 19 -10 19 -5 0 -10 -17 -10 -37z"/>
<path d="M5794 8026 c11 -9 24 -16 30 -16 12 0 7 5 -24 19 -24 11 -24 11 -6
-3z"/>
<path d="M15131 8023 c-5 -10 -16 -61 -25 -113 -9 -52 -20 -113 -25 -135 -5
-22 -16 -74 -25 -115 -19 -93 -60 -232 -126 -420 -56 -161 -62 -194 -25 -135
23 37 53 125 107 310 11 39 38 122 61 185 22 63 51 156 64 205 13 50 33 115
44 144 l20 55 -23 18 c-29 22 -35 22 -47 1z"/>
<path d="M3330 7906 c0 -10 4 -35 9 -55 6 -20 17 -81 26 -136 18 -108 40 -178
29 -90 -18 141 -41 262 -55 285 -7 12 -8 12 -9 -4z"/>
<path d="M6090 7890 c8 -5 22 -9 30 -9 10 0 8 3 -5 9 -27 12 -43 12 -25 0z"/>
<path d="M1869 7836 c-9 -20 -9 -39 -1 -78 6 -29 16 -102 22 -163 7 -60 18
-150 25 -200 8 -49 19 -135 25 -190 16 -150 20 -165 35 -165 23 0 29 -22 11
-36 -15 -10 -16 -22 -11 -68 7 -52 25 -89 25 -50 0 12 6 15 25 12 15 -3 25 -1
25 6 0 12 -22 132 -46 256 -8 41 -19 107 -24 145 -4 39 -18 116 -29 171 -11
56 -25 137 -30 180 -29 214 -32 225 -52 180z"/>
<path d="M16612 7828 c-8 -21 -12 -48 -10 -60 4 -22 5 -21 17 6 6 17 11 44 9
60 l-3 31 -13 -37z"/>
<path d="M18671 7830 c0 -19 4 -42 9 -50 8 -12 10 -11 9 5 -1 11 -5 34 -9 50
l-8 30 -1 -35z"/>
<path d="M6269 7815 c18 -8 38 -15 45 -14 15 1 -46 28 -64 28 -8 0 0 -6 19
-14z"/>
<path d="M6475 7736 c17 -7 44 -16 60 -19 26 -5 25 -4 -10 13 -22 11 -49 19
-60 19 -15 -1 -13 -4 10 -13z"/>
<path d="M16570 7659 c-11 -41 -25 -88 -30 -105 -12 -38 -12 -44 -1 -44 10 0
67 208 58 216 -3 3 -15 -27 -27 -67z"/>
<path d="M13315 7693 c-44 -16 -68 -33 -44 -33 17 0 99 37 99 45 0 7 -8 5 -55
-12z"/>
<path d="M6620 7690 c0 -8 60 -23 67 -17 1 2 -13 8 -32 14 -19 6 -35 8 -35 3z"/>
<path d="M13188 7642 c-47 -15 -70 -40 -25 -26 29 9 77 33 77 39 0 3 -1 5 -2
4 -2 0 -24 -8 -50 -17z"/>
<path d="M18700 7650 c-4 -29 2 -93 10 -114 7 -17 9 -15 9 14 0 40 -16 123
-19 100z"/>
<path d="M3403 7529 c4 -14 9 -52 13 -84 3 -33 15 -94 26 -135 11 -41 26 -106
34 -145 27 -129 32 -150 63 -268 17 -65 34 -123 38 -129 4 -7 10 -30 14 -53
17 -100 102 -402 189 -675 22 -69 62 -199 91 -290 28 -91 59 -187 69 -215 11
-27 24 -69 30 -91 5 -23 24 -72 41 -110 18 -38 40 -91 51 -119 l18 -50 -5 48
c-3 27 -11 61 -18 75 -18 36 -67 178 -76 222 -4 19 -19 58 -34 85 -23 45 -47
118 -75 230 -6 22 -19 65 -30 95 -11 30 -25 73 -31 95 -7 22 -16 49 -21 60 -5
11 -16 52 -24 90 -8 39 -21 90 -29 115 -25 71 -74 240 -90 305 -9 33 -24 92
-35 130 -24 88 -39 149 -62 250 -10 44 -24 105 -32 135 -9 30 -21 84 -27 119
-7 35 -16 71 -21 80 -4 9 -14 50 -20 91 -15 99 -28 148 -42 156 -7 5 -9 -1 -5
-17z"/>
<path d="M7188 7523 c6 -2 18 -2 25 0 6 3 1 5 -13 5 -14 0 -19 -2 -12 -5z"/>
<path d="M16522 7471 c-7 -19 -12 -41 -11 -50 0 -9 7 2 15 23 8 22 13 45 11
50 -2 6 -9 -5 -15 -23z"/>
<path d="M7410 7470 c8 -5 20 -10 25 -10 6 0 3 5 -5 10 -8 5 -19 10 -25 10 -5
0 -3 -5 5 -10z"/>
<path d="M7635 7420 c27 -12 43 -12 25 0 -8 5 -22 9 -30 9 -10 0 -8 -3 5 -9z"/>
<path d="M8150 7314 c14 -10 28 -23 32 -28 13 -19 8 -126 -13 -296 -12 -91
-25 -226 -30 -300 -4 -74 -11 -157 -14 -185 -33 -316 -70 -1036 -58 -1145 l8
-75 18 185 c9 102 22 291 27 421 6 130 15 290 20 355 6 66 15 166 20 224 5 58
14 168 20 245 6 77 17 192 25 255 8 63 15 132 15 155 0 22 7 71 15 110 9 43
11 73 6 78 -6 6 -34 12 -63 14 l-53 5 25 -18z"/>
<path d="M11984 7295 c-17 -13 -17 -14 -2 -15 49 -1 35 -59 -48 -190 -23 -36
-58 -99 -79 -140 -21 -41 -46 -87 -57 -103 -11 -15 -51 -91 -90 -170 -39 -78
-85 -163 -102 -188 -17 -26 -48 -79 -69 -118 l-37 -71 -138 0 c-191 -1 -424
-17 -507 -35 -38 -8 -88 -19 -110 -24 -59 -14 -202 -56 -265 -80 -30 -11 -66
-21 -80 -21 -34 -1 -202 -72 -208 -87 -6 -21 37 -15 113 13 39 14 79 29 90 32
11 3 35 14 53 24 19 10 64 25 101 33 36 7 80 19 96 25 16 6 109 26 206 45 160
30 195 34 386 36 203 2 233 -1 233 -23 0 -5 -25 -60 -57 -122 -155 -306 -284
-567 -303 -616 -12 -30 -32 -73 -44 -95 -13 -22 -29 -57 -36 -78 -6 -21 -23
-57 -36 -80 -13 -24 -33 -71 -44 -106 -10 -34 -26 -72 -35 -84 -8 -12 -15 -31
-15 -42 0 -19 2 -18 19 4 11 14 24 42 30 62 6 20 40 95 75 166 35 70 67 139
71 153 4 14 46 102 93 195 339 675 473 938 490 962 11 16 43 75 72 133 29 58
67 128 84 155 18 28 47 81 65 120 18 38 38 77 46 85 8 9 37 61 64 115 28 55
58 110 67 123 16 22 16 22 -28 22 -24 0 -53 -7 -64 -15z"/>
<path d="M8477 7269 c7 -7 41 -16 75 -20 184 -20 193 -20 175 -9 -10 7 -57 16
-105 21 -48 5 -103 12 -122 15 -29 5 -33 4 -23 -7z"/>
<path d="M16462 7248 c-6 -18 -13 -46 -16 -63 -10 -48 11 -6 23 46 12 52 7 64
-7 17z"/>
<path d="M11848 7263 c6 -2 18 -2 25 0 6 3 1 5 -13 5 -14 0 -19 -2 -12 -5z"/>
<path d="M11715 7240 c-7 -12 12 -12 40 0 18 8 17 9 -7 9 -15 1 -30 -3 -33 -9z"/>
<path d="M16801 7232 c-5 -10 -23 -72 -40 -137 -17 -66 -47 -181 -66 -255 -20
-74 -34 -141 -32 -150 2 -8 9 5 16 30 8 25 24 80 37 122 13 42 24 88 24 102 0
14 6 43 14 63 8 21 22 70 31 108 9 39 20 85 25 103 9 36 6 41 -9 14z"/>
<path d="M8860 7221 c0 -8 52 -22 58 -16 2 1 -11 7 -27 13 -17 6 -31 7 -31 3z"/>
<path d="M11540 7214 l-25 -15 25 5 c14 3 28 6 33 6 4 0 7 5 7 10 0 14 -10 12
-40 -6z"/>
<path d="M18751 7185 c0 -22 4 -47 9 -55 13 -19 13 46 0 75 -7 16 -9 11 -9
-20z"/>
<path d="M8980 7201 c0 -6 11 -16 25 -21 28 -11 56 -53 108 -161 20 -42 43
-79 52 -83 27 -10 17 27 -30 115 -59 108 -57 122 15 129 l55 5 -45 7 c-107 17
-180 20 -180 9z"/>
<path d="M11330 7190 c-20 -6 -14 -8 28 -9 28 -1 52 3 52 9 0 12 -44 12 -80 0z"/>
<path d="M9290 7172 c26 -15 213 -32 600 -52 l375 -20 375 20 c206 12 411 27
455 35 l80 14 -65 -5 c-36 -3 -380 -7 -765 -10 -649 -5 -832 -1 -1025 22 -29
3 -40 2 -30 -4z"/>
<path d="M16416 7088 c-3 -7 -9 -28 -15 -47 -6 -19 -11 -43 -11 -55 1 -17 3
-15 14 9 14 32 28 105 20 105 -3 0 -6 -6 -8 -12z"/>
<path d="M18781 6910 c0 -8 4 -22 9 -30 12 -18 12 -2 0 25 -6 13 -9 15 -9 5z"/>
<path d="M16343 6819 c-21 -70 -22 -100 -3 -69 12 19 33 117 28 132 -2 6 -14
-22 -25 -63z"/>
<path d="M18796 6752 c4 -35 10 -76 14 -90 7 -22 8 -18 8 23 0 28 -6 68 -13
90 l-14 40 5 -63z"/>
<path d="M2060 6783 c0 -12 5 -25 10 -28 13 -8 13 15 0 35 -8 12 -10 11 -10
-7z"/>
<path d="M16991 6734 c-14 -49 -15 -102 -2 -88 15 15 31 97 21 113 -6 11 -11
5 -19 -25z"/>
<path d="M2005 6683 c7 -40 25 -69 25 -41 0 33 -13 78 -22 78 -6 0 -7 -15 -3
-37z"/>
<path d="M16311 6710 c-1 -8 -4 -26 -7 -40 -5 -22 -4 -23 6 -7 6 10 9 28 7 40
-2 12 -5 15 -6 7z"/>
<path d="M14736 6695 c-9 -26 -7 -32 5 -12 6 10 9 21 6 23 -2 3 -7 -2 -11 -11z"/>
<path d="M16626 6580 c-14 -44 -26 -88 -26 -96 0 -30 17 -4 29 43 7 27 17 65
22 86 19 73 0 49 -25 -33z"/>
<path d="M2122 6510 c0 -14 2 -19 5 -12 2 6 2 18 0 25 -3 6 -5 1 -5 -13z"/>
<path d="M18831 6498 c-1 -20 4 -40 9 -43 12 -7 12 32 0 60 -7 16 -9 13 -9
-17z"/>
<path d="M8245 6460 c-11 -18 22 -40 61 -40 43 0 187 -27 249 -47 77 -24 244
-110 304 -156 29 -23 64 -58 77 -79 22 -35 64 -53 64 -29 0 13 -150 157 -192
185 -104 70 -241 122 -398 152 -134 25 -157 27 -165 14z"/>
<path d="M2037 6357 c-4 -56 -11 -118 -17 -138 -5 -19 -14 -73 -19 -120 -6
-46 -19 -136 -30 -199 -12 -63 -21 -128 -21 -145 1 -57 28 1 35 73 6 56 32
215 51 300 5 27 38 30 54 5 9 -14 10 -10 6 22 -3 22 -8 67 -11 100 -9 89 -27
195 -35 200 -4 2 -10 -42 -13 -98z"/>
<path d="M16237 6426 c-4 -10 -7 -25 -6 -34 0 -11 4 -9 10 7 5 13 8 29 6 35
-2 5 -6 2 -10 -8z"/>
<path d="M16570 6385 c0 -9 -38 -149 -46 -169 -5 -13 -4 -17 4 -13 21 14 68
187 51 187 -5 0 -9 -2 -9 -5z"/>
<path d="M18856 6285 c8 -109 20 -229 37 -360 8 -60 20 -155 27 -209 6 -55 15
-107 21 -115 13 -23 0 178 -18 269 -14 70 -19 110 -43 345 -12 124 -32 180
-24 70z"/>
<path d="M16202 6314 c-17 -45 -34 -115 -28 -121 10 -11 51 117 44 138 -2 7
-9 -1 -16 -17z"/>
<path d="M2171 6252 c-1 -43 18 -120 32 -129 7 -4 8 0 3 12 -4 11 -9 39 -12
63 -3 24 -9 53 -14 65 -8 19 -9 18 -9 -11z"/>
<path d="M16146 6128 c-11 -35 -26 -109 -26 -125 1 -15 2 -16 10 -3 15 26 38
140 28 140 -5 0 -10 -6 -12 -12z"/>
<path d="M2096 6029 c9 -103 44 -311 55 -328 11 -17 9 14 -11 184 -8 77 -34
192 -45 203 -3 3 -2 -24 1 -59z"/>
<path d="M2502 6020 c0 -14 2 -19 5 -12 2 6 2 18 0 25 -3 6 -5 1 -5 -13z"/>
<path d="M1108 5670 c-4 -14 -8 -43 -7 -65 0 -36 1 -38 10 -15 6 13 9 42 7 65
-3 35 -4 37 -10 15z"/>
<path d="M1925 5613 c-3 -32 -10 -83 -16 -113 -6 -31 -9 -69 -7 -85 7 -52 36
67 41 168 5 97 -8 120 -18 30z"/>
<path d="M2160 5625 c0 -22 7 -83 16 -135 8 -52 19 -129 24 -170 21 -179 38
-268 53 -277 6 -4 7 14 3 53 -4 32 -9 82 -10 109 -2 28 -10 79 -19 115 -16 68
-32 166 -42 260 -7 71 -25 102 -25 45z"/>
<path d="M2600 5560 c0 -14 5 -32 10 -40 8 -12 10 -10 10 10 0 14 -5 32 -10
40 -8 12 -10 10 -10 -10z"/>
<path d="M18950 5479 c0 -22 4 -70 10 -107 19 -136 42 -320 59 -487 6 -60 16
-132 21 -160 5 -27 14 -97 20 -155 11 -96 24 -203 65 -515 8 -60 19 -150 25
-200 40 -324 42 -342 70 -495 6 -30 17 -145 25 -255 9 -110 19 -247 25 -305 5
-58 14 -172 20 -255 6 -82 17 -233 25 -335 8 -102 17 -252 20 -335 4 -82 13
-215 21 -295 26 -256 36 -420 39 -640 1 -118 10 -300 19 -405 10 -104 21 -262
26 -350 5 -88 9 -161 10 -162 0 -2 11 -3 26 -3 l25 0 -6 82 c-3 46 -10 162
-16 258 -6 96 -15 222 -20 280 -4 58 -13 195 -18 305 -6 110 -17 274 -26 365
-8 91 -19 242 -25 335 -15 247 -30 439 -40 525 -5 41 -14 161 -20 265 -6 105
-18 258 -26 340 -9 83 -19 204 -24 270 -13 182 -19 239 -40 375 -27 176 -49
336 -66 470 -7 63 -21 160 -29 215 -9 55 -21 141 -26 190 -21 192 -28 243 -42
330 -8 50 -18 124 -21 166 -4 42 -13 118 -21 170 -8 52 -22 157 -30 234 -15
140 -44 325 -51 325 -2 0 -4 -18 -4 -41z"/>
<path d="M2631 5443 c-1 -12 4 -25 9 -28 12 -7 12 2 0 30 -8 19 -9 19 -9 -2z"/>
<path d="M2351 5434 c0 -11 3 -14 6 -6 3 7 2 16 -1 19 -3 4 -6 -2 -5 -13z"/>
<path d="M2374 5322 c5 -56 31 -130 42 -120 7 7 -22 143 -35 164 -10 16 -11 8
-7 -44z"/>
<path d="M2655 5335 c3 -27 10 -54 15 -59 14 -14 11 21 -6 69 l-14 40 5 -50z"/>
<path d="M1878 5275 c-2 -19 0 -35 4 -35 4 0 8 16 8 35 0 19 -2 35 -4 35 -2 0
-6 -16 -8 -35z"/>
<path d="M1057 5283 c-4 -3 -7 -22 -6 -42 l1 -36 9 39 c9 39 8 52 -4 39z"/>
<path d="M2680 5225 c0 -11 5 -27 10 -35 8 -12 10 -12 10 5 0 11 -5 27 -10 35
-8 12 -10 12 -10 -5z"/>
<path d="M14102 5161 c-7 -19 -10 -36 -7 -39 6 -7 26 49 22 62 -2 6 -9 -5 -15
-23z"/>
<path d="M1856 5128 c-4 -13 -11 -57 -16 -98 -5 -41 -13 -104 -19 -140 -5 -36
-15 -105 -21 -155 -6 -49 -15 -124 -20 -165 -6 -41 -11 -95 -11 -120 -1 -25
-7 -83 -15 -130 -18 -112 -33 -255 -50 -480 -8 -102 -17 -215 -21 -252 -4 -44
-2 -68 5 -68 16 0 22 41 33 228 6 97 14 218 19 267 30 314 42 430 55 510 8 50
22 151 31 225 8 74 24 191 35 259 11 71 15 129 10 134 -5 5 -11 -2 -15 -15z"/>
<path d="M2701 5135 c0 -11 6 -33 14 -50 10 -23 13 -25 14 -10 0 11 -6 34 -14
50 -10 23 -13 25 -14 10z"/>
<path d="M4090 5136 c0 -9 11 -38 25 -64 26 -49 32 -42 15 19 -12 42 -40 73
-40 45z"/>
<path d="M2441 5055 c-1 -29 10 -65 20 -65 13 0 10 20 -6 55 -10 23 -14 26
-14 10z"/>
<path d="M2261 4974 c-1 -22 6 -49 14 -60 14 -19 14 -19 14 1 0 11 -6 38 -14
60 l-13 40 -1 -41z"/>
<path d="M4150 4987 c0 -33 31 -129 69 -212 15 -33 33 -79 40 -102 6 -23 16
-45 21 -48 17 -11 11 39 -9 77 -11 20 -27 62 -35 94 -16 62 -55 167 -74 200
-10 17 -11 16 -12 -9z"/>
<path d="M2475 4918 c4 -13 10 -42 14 -66 5 -24 14 -48 21 -55 10 -10 11 -8 7
8 -3 11 -12 46 -19 78 -7 31 -17 57 -21 57 -5 0 -6 -10 -2 -22z"/>
<path d="M2761 4903 c-1 -17 4 -35 9 -38 11 -7 11 9 0 45 -8 24 -8 24 -9 -7z"/>
<path d="M2285 4830 c4 -30 10 -77 15 -105 46 -274 47 -293 9 -445 -4 -19 -18
-75 -30 -123 -13 -52 -19 -103 -16 -123 10 -63 55 -142 115 -206 115 -121 126
-138 152 -242 10 -39 25 -96 33 -126 32 -118 32 -131 -7 -208 -48 -96 -62
-107 -154 -121 -42 -7 -85 -17 -94 -22 -10 -5 -24 -9 -31 -9 -19 0 -144 -62
-212 -105 -33 -21 -127 -106 -209 -187 -90 -90 -153 -145 -158 -140 -5 5 -13
119 -17 253 l-7 244 -7 -150 c-23 -473 -20 -449 -48 -486 -14 -19 -57 -86 -94
-149 -38 -63 -92 -149 -121 -191 -29 -42 -62 -96 -74 -120 -13 -24 -47 -82
-78 -129 -53 -80 -132 -221 -212 -377 -20 -40 -42 -78 -48 -85 -17 -21 -98
-189 -112 -233 -7 -22 -19 -49 -26 -60 -7 -11 -26 -58 -44 -105 -40 -111 -52
-134 -72 -138 -19 -4 -26 29 -23 104 1 30 -2 54 -6 54 -5 0 -9 -8 -9 -17 -1
-96 -51 -490 -65 -513 -2 -4 -11 -42 -20 -86 -8 -43 -25 -110 -37 -147 -16
-53 -19 -82 -15 -132 5 -46 3 -65 -5 -65 -9 0 -9 -3 0 -12 6 -6 14 -9 17 -7 3
3 12 61 20 130 9 68 23 141 30 162 8 20 15 48 15 61 0 32 138 448 198 596 5
14 26 59 45 100 19 41 38 86 42 99 6 20 72 152 153 306 35 67 88 162 149 265
27 47 55 101 63 120 7 19 36 67 65 105 55 75 81 114 158 239 100 164 247 349
387 488 142 141 174 166 292 224 88 45 146 62 234 70 172 16 239 -17 273 -136
10 -36 24 -78 30 -95 6 -16 26 -79 45 -140 19 -60 50 -155 71 -210 35 -98 39
-138 13 -147 -7 -3 -51 -1 -98 5 -60 7 -118 6 -200 -3 -63 -7 -153 -16 -200
-21 -47 -5 -105 -13 -130 -19 -25 -5 -81 -17 -125 -25 -95 -18 -131 -31 -140
-53 -11 -30 12 -36 72 -19 165 45 268 63 458 78 188 15 409 -1 425 -32 15 -27
2 -47 -43 -66 -23 -10 -76 -35 -117 -56 -109 -55 -253 -97 -235 -68 17 28
-291 11 -385 -21 -78 -26 -169 -69 -227 -106 -129 -84 -203 -138 -203 -148 0
-7 10 -14 23 -18 33 -9 37 -8 37 9 0 8 6 15 14 15 8 0 16 -7 20 -15 3 -8 17
-15 31 -15 16 0 25 -6 25 -16 0 -13 -5 -14 -22 -8 -13 4 -63 8 -113 8 -82 0
-96 -3 -155 -33 -166 -85 -235 -146 -379 -338 -93 -124 -107 -153 -71 -153 14
0 34 21 64 68 104 159 255 306 375 365 58 28 75 32 146 32 71 -1 87 -4 144
-34 l64 -33 46 23 c25 13 74 42 109 66 35 24 102 64 150 89 48 26 105 59 128
74 46 30 368 190 384 190 6 0 52 21 102 46 50 25 126 57 167 71 42 13 94 33
116 43 22 10 56 22 75 27 19 6 85 28 145 51 61 22 156 55 212 72 57 17 105 36
108 41 4 5 21 9 38 9 18 1 43 7 57 15 l25 14 -35 0 c-19 0 -46 -6 -60 -14 -14
-8 -40 -14 -59 -15 -29 0 -43 9 -83 50 l-48 50 15 -36 c31 -75 17 -92 -115
-134 -91 -30 -93 -30 -124 -12 -24 14 -35 31 -50 77 -29 92 -37 107 -31 56 3
-24 12 -56 20 -72 23 -43 19 -86 -7 -101 -40 -22 -152 -60 -181 -62 -20 -1
-32 6 -42 24 -25 46 -63 144 -101 255 -20 61 -44 126 -54 145 -10 19 -21 51
-25 70 -4 19 -29 102 -56 184 -45 135 -70 228 -101 371 -6 28 -21 79 -33 115
-13 36 -28 97 -35 135 -6 39 -16 84 -22 100 -23 70 -48 172 -48 199 0 16 -4
43 -9 60 -18 59 -33 132 -52 241 -20 114 -21 123 -65 320 -14 66 -30 145 -34
175 -13 92 -30 169 -46 203 -15 32 -15 32 -9 -23z m99 -557 c3 -16 8 -50 12
-78 3 -27 13 -65 20 -84 8 -18 14 -47 14 -63 0 -16 11 -74 25 -130 14 -55 22
-104 19 -109 -11 -19 -43 -8 -66 24 -60 77 -81 137 -86 235 -5 96 12 211 32
224 19 13 24 9 30 -19z m246 -1110 c0 -28 -21 -39 -49 -24 -17 10 -19 15 -10
38 6 15 16 31 22 35 15 10 37 -19 37 -49z m-150 -1102 c0 -6 -4 -13 -10 -16
-5 -3 -10 1 -10 9 0 9 5 16 10 16 6 0 10 -4 10 -9z m-150 -101 c0 -5 -5 -10
-11 -10 -5 0 -7 5 -4 10 3 6 8 10 11 10 2 0 4 -4 4 -10z"/>
<path d="M2791 4784 c0 -11 3 -14 6 -6 3 7 2 16 -1 19 -3 4 -6 -2 -5 -13z"/>
<path d="M2800 4722 c0 -5 9 -35 20 -67 11 -32 20 -66 20 -76 0 -10 5 -21 11
-25 9 -5 10 1 5 22 -4 16 -11 49 -16 74 -4 25 -11 53 -15 63 -7 17 -25 24 -25
9z"/>
<path d="M10776 4695 c-9 -26 -7 -32 5 -12 6 10 9 21 6 23 -2 3 -7 -2 -11 -11z"/>
<path d="M2540 4652 c0 -17 41 -135 50 -146 5 -4 -2 26 -14 67 -20 71 -36 105
-36 79z"/>
<path d="M10733 4593 c-3 -10 -12 -33 -19 -50 -7 -19 -9 -33 -3 -33 5 0 9 1 9
3 0 1 7 23 15 50 13 44 12 68 -2 30z"/>
<path d="M18464 4478 c11 -200 46 -565 66 -683 5 -33 10 -85 10 -115 0 -30 4
-91 10 -135 11 -91 36 -352 45 -465 3 -41 10 -106 15 -145 5 -38 14 -126 19
-195 15 -173 39 -446 56 -625 8 -82 17 -204 20 -270 4 -66 12 -185 20 -265 8
-80 19 -210 25 -290 6 -80 18 -230 26 -335 16 -193 26 -330 44 -600 23 -340
22 -335 55 -335 28 0 28 -5 15 115 -10 98 -22 258 -46 600 -27 375 -54 699
-79 960 -9 88 -20 228 -26 310 -5 83 -14 188 -19 235 -5 47 -18 193 -30 325
-11 132 -27 301 -35 375 -8 74 -19 198 -25 275 -6 77 -17 194 -25 260 -8 66
-17 161 -20 210 -4 50 -13 149 -21 220 -8 72 -23 225 -34 340 -25 267 -39 345
-62 345 -7 0 -8 -39 -4 -112z"/>
<path d="M15270 4494 c-11 -26 -20 -51 -20 -56 0 -5 -7 -23 -16 -39 -8 -17
-13 -33 -10 -36 6 -6 61 111 70 150 10 41 -1 33 -24 -19z"/>
<path d="M2861 4503 c-1 -18 3 -42 9 -55 5 -13 14 -43 20 -67 6 -23 14 -41 17
-38 6 6 -12 88 -33 152 l-12 40 -1 -32z"/>
<path d="M2598 4468 c-8 -19 11 -98 23 -98 12 0 10 38 -5 79 -9 25 -14 30 -18
19z"/>
<path d="M14086 4415 c-9 -26 -7 -32 5 -12 6 10 9 21 6 23 -2 3 -7 -2 -11 -11z"/>
<path d="M20900 4383 c0 -15 5 -35 10 -43 7 -11 10 -6 10 22 0 20 -4 40 -10
43 -6 4 -10 -6 -10 -22z"/>
<path d="M2635 4309 c3 -19 19 -79 36 -134 41 -141 74 -255 105 -365 14 -52
39 -135 54 -185 15 -49 38 -123 50 -163 12 -41 24 -72 26 -69 6 6 -11 79 -41
177 -12 41 -27 93 -32 115 -6 22 -22 78 -36 125 -22 74 -44 152 -134 463 -18
64 -39 90 -28 36z"/>
<path d="M14030 4310 c-6 -12 -9 -24 -7 -27 3 -2 11 5 17 17 6 12 9 24 7 27
-3 2 -11 -5 -17 -17z"/>
<path d="M2916 4292 c-3 -6 0 -26 8 -44 13 -30 14 -31 14 -8 1 35 -13 67 -22
52z"/>
<path d="M15117 4123 c-4 -3 -7 -16 -6 -27 0 -19 1 -19 10 3 10 24 8 36 -4 24z"/>
<path d="M20952 4095 c0 -11 4 -33 8 -50 l8 -30 0 30 c0 17 -3 39 -8 50 l-9
20 1 -20z"/>
<path d="M15068 4020 c-9 -14 -21 -43 -28 -65 -7 -22 -36 -89 -65 -150 -29
-60 -63 -139 -75 -175 -12 -36 -41 -105 -64 -155 -45 -96 -104 -230 -113 -255
-3 -8 4 -4 14 9 11 13 26 40 33 60 7 20 39 91 71 157 33 67 59 127 59 134 0 6
13 35 28 63 15 29 34 72 42 97 7 25 30 77 50 115 21 39 45 91 55 117 20 55 16
85 -7 48z"/>
<path d="M13440 3954 c-74 -42 -78 -48 -39 -56 38 -7 61 7 85 54 18 34 11 35
-46 2z"/>
<path d="M13330 3875 c-7 -8 -8 -15 -2 -15 5 0 15 7 22 15 7 8 8 15 2 15 -5 0
-15 -7 -22 -15z"/>
<path d="M13782 3853 c-22 -40 -33 -75 -22 -68 15 10 42 65 37 78 -2 7 -9 3
-15 -10z"/>
<path d="M13265 3834 c-16 -8 -39 -23 -50 -33 -11 -10 -49 -37 -85 -61 -122
-81 -250 -174 -250 -183 0 -9 39 13 129 72 29 20 72 48 95 63 22 15 46 31 51
36 6 4 35 26 65 48 49 36 89 74 79 74 -2 0 -17 -7 -34 -16z"/>
<path d="M13400 3830 c0 -5 -13 -24 -28 -42 -16 -18 -32 -42 -36 -53 -9 -24
-109 -197 -183 -315 -29 -47 -53 -89 -53 -93 0 -6 -48 -91 -150 -262 -27 -44
-62 -109 -80 -145 -37 -76 -34 -71 -86 -146 -23 -33 -54 -84 -69 -114 -15 -30
-40 -73 -55 -95 -15 -22 -36 -60 -47 -85 -20 -45 -64 -100 -81 -100 -5 0 -19
11 -31 24 -40 43 -53 232 -26 406 42 279 56 352 80 429 35 109 45 124 110 157
52 26 109 74 89 74 -6 0 -39 -21 -75 -46 -35 -25 -82 -55 -104 -66 -51 -26
-215 -147 -215 -159 0 -14 31 2 88 44 40 31 56 37 65 28 9 -9 8 -19 -2 -44 -7
-17 -21 -75 -32 -127 -10 -52 -26 -131 -35 -175 -22 -102 -30 -319 -15 -424 7
-53 21 -101 41 -140 39 -78 37 -85 -63 -246 -28 -44 -67 -109 -87 -145 -31
-55 -139 -234 -201 -335 -10 -16 -57 -88 -104 -159 -47 -71 -84 -136 -83 -145
5 -24 104 -88 173 -111 60 -20 67 -20 137 -6 40 8 92 17 115 21 58 9 73 29 33
43 -35 13 -38 33 -11 70 10 15 26 43 35 62 l17 35 -33 -36 c-18 -20 -52 -59
-76 -87 -49 -59 -96 -77 -178 -69 -51 5 -132 39 -146 61 -14 20 -8 63 11 87
25 32 162 262 193 324 14 28 48 86 77 130 28 44 74 123 102 175 66 124 98 179
129 221 31 40 106 167 119 201 5 12 39 70 76 128 36 58 82 138 101 179 19 41
63 117 98 170 36 53 77 123 93 156 30 61 100 188 156 280 40 66 96 166 169
300 33 61 69 125 80 143 11 17 15 32 9 32 -6 0 -11 -4 -11 -10z"/>
<path d="M21004 3811 c3 -18 6 -37 6 -42 0 -5 4 -9 9 -9 5 0 5 15 1 36 -11 46
-25 60 -16 15z"/>
<path d="M14204 3515 c-9 -14 -14 -28 -11 -31 3 -3 13 8 22 25 19 37 12 41
-11 6z"/>
<path d="M21062 3495 c0 -16 2 -22 5 -12 2 9 2 23 0 30 -3 6 -5 -1 -5 -18z"/>
<path d="M13566 3443 c-6 -14 -5 -15 5 -6 7 7 10 15 7 18 -3 3 -9 -2 -12 -12z"/>
<path d="M2922 3329 c6 -16 12 -29 13 -27 6 6 -8 58 -16 58 -4 0 -3 -14 3 -31z"/>
<path d="M6540 3333 c0 -10 34 -32 49 -33 10 0 11 3 2 14 -12 14 -51 29 -51
19z"/>
<path d="M2975 3161 c3 -24 12 -56 20 -72 8 -15 20 -52 27 -81 6 -29 13 -46
15 -37 4 18 -43 195 -58 219 -7 10 -8 2 -4 -29z"/>
<path d="M12242 3129 c-50 -34 -92 -65 -92 -70 0 -15 13 -10 60 21 25 17 64
42 87 57 39 25 63 53 45 53 -4 0 -49 -27 -100 -61z"/>
<path d="M13996 3133 c-6 -14 -5 -15 5 -6 7 7 10 15 7 18 -3 3 -9 -2 -12 -12z"/>
<path d="M14671 3094 c0 -11 3 -14 6 -6 3 7 2 16 -1 19 -3 4 -6 -2 -5 -13z"/>
<path d="M14636 3028 c-30 -69 -30 -72 -18 -64 16 9 44 76 40 94 -2 7 -11 -6
-22 -30z"/>
<path d="M11985 2965 c-61 -31 -127 -84 -104 -85 9 0 28 9 42 20 14 11 29 20
34 20 4 1 26 16 48 35 47 41 46 42 -20 10z"/>
<path d="M14581 2912 c-6 -12 -11 -27 -11 -34 1 -7 8 0 16 15 9 16 13 31 11
34 -3 2 -10 -4 -16 -15z"/>
<path d="M11730 2814 c-30 -19 -62 -39 -70 -44 -29 -17 -1 -21 33 -5 38 18
119 84 102 84 -5 0 -35 -16 -65 -35z"/>
<path d="M13186 2752 c-14 -28 -37 -67 -51 -88 -30 -44 -33 -69 -4 -34 26 31
92 160 85 167 -2 3 -16 -18 -30 -45z"/>
<path d="M11555 2720 c-27 -18 -28 -20 -9 -20 12 0 32 9 45 20 32 26 4 27 -36
0z"/>
<path d="M3120 2689 c0 -22 38 -131 50 -143 14 -14 13 -2 -6 68 -17 61 -44
108 -44 75z"/>
<path d="M3420 2685 c0 -5 5 -17 10 -25 5 -8 10 -10 10 -5 0 6 -5 17 -10 25
-5 8 -10 11 -10 5z"/>
<path d="M3440 2633 c1 -11 50 -90 50 -80 0 11 -39 87 -45 87 -3 0 -5 -3 -5
-7z"/>
<path d="M4200 2585 c-36 -7 -76 -17 -90 -23 -14 -6 -68 -18 -121 -26 -109
-17 -190 -44 -197 -65 -3 -10 0 -12 14 -6 11 4 69 18 131 31 62 12 120 27 130
32 10 5 52 14 93 21 94 16 150 32 150 43 0 10 -28 9 -110 -7z"/>
<path d="M13570 2358 c-12 -22 -12 -22 6 -6 10 10 15 20 12 24 -4 3 -12 -5
-18 -18z"/>
<path d="M13298 1893 c-8 -10 -18 -27 -22 -38 -5 -15 0 -14 19 8 14 15 25 32
25 38 0 13 -5 11 -22 -8z"/>
<path d="M13220 1765 c-40 -65 -49 -93 -18 -58 22 25 71 114 65 119 -3 3 -23
-25 -47 -61z"/>
<path d="M12626 1763 c-6 -14 -5 -15 5 -6 7 7 10 15 7 18 -3 3 -9 -2 -12 -12z"/>
<path d="M10350 1660 c-6 -11 -7 -20 -2 -20 6 0 12 9 15 20 3 11 3 20 1 20 -2
0 -8 -9 -14 -20z"/>
<path d="M12541 1629 c-23 -37 -27 -54 -11 -44 14 9 43 66 36 72 -3 3 -14 -10
-25 -28z"/>
<path d="M13108 1598 c-19 -24 -44 -59 -56 -79 -21 -35 -86 -99 -128 -127 -16
-11 -13 -12 28 -8 26 3 65 13 85 22 21 9 46 16 56 15 17 -2 123 34 142 48 5 5
38 14 73 21 68 14 96 32 35 23 -21 -3 -83 -19 -138 -35 -155 -45 -145 -44
-145 -14 0 15 19 52 45 88 39 53 55 88 41 88 -2 0 -19 -19 -38 -42z"/>
<path d="M13580 1596 c-20 -8 -54 -17 -75 -20 -39 -7 -83 -31 -74 -40 4 -4 72
12 169 40 14 4 34 13 45 21 19 12 19 13 -5 12 -14 0 -41 -6 -60 -13z"/>
<path d="M10262 1505 c-7 -15 -11 -30 -8 -32 7 -7 28 36 24 49 -2 6 -9 -2 -16
-17z"/>
<path d="M10573 1505 c15 -14 33 -25 40 -25 7 1 -1 12 -18 25 -39 32 -58 32
-22 0z"/>
<path d="M10645 1460 c9 -15 45 -32 45 -22 0 5 -12 14 -26 20 -14 7 -23 8 -19
2z"/>
<path d="M10862 1298 c2 -6 15 -18 28 -27 22 -15 23 -15 12 6 -12 22 -46 41
-40 21z"/>
<path d="M10930 1241 c0 -5 7 -12 16 -15 14 -5 15 -4 4 9 -14 17 -20 19 -20 6z"/>
<path d="M10992 1184 c10 -10 20 -15 24 -12 3 4 -5 12 -18 18 -22 12 -22 12
-6 -6z"/>
<path d="M9635 989 c-38 -21 -98 -48 -132 -59 -35 -10 -75 -26 -90 -35 -28
-16 -28 -16 -3 -12 29 5 116 35 145 50 11 6 55 28 97 49 43 22 78 42 78 44 0
10 -31 -2 -95 -37z"/>
<path d="M10666 1016 c10 -8 21 -12 24 -10 5 6 -21 24 -34 24 -6 0 -1 -6 10
-14z"/>
<path d="M9320 868 c-19 -6 -52 -16 -73 -24 -20 -8 -48 -14 -62 -14 -13 0 -27
-5 -31 -11 -10 -16 63 -2 150 28 94 33 104 46 16 21z"/>
<path d="M9915 851 c-2 -5 8 -11 23 -14 35 -7 38 -3 7 11 -13 6 -27 7 -30 3z"/>
<path d="M9005 802 c-44 -5 -56 -22 -14 -21 42 1 79 13 58 20 -8 3 -27 3 -44
1z"/>
<path d="M8417 794 c-8 -8 41 -64 56 -64 4 0 7 15 5 33 -2 26 -8 33 -28 35
-14 2 -29 0 -33 -4z"/>
<path d="M8569 598 c16 -24 43 -72 61 -108 17 -36 40 -77 51 -90 l19 -25 -9
25 c-4 14 -6 39 -4 56 4 26 -1 34 -31 58 -20 15 -50 49 -68 76 -18 28 -36 50
-40 50 -4 0 5 -19 21 -42z"/>
<path d="M10507 609 c7 -7 15 -10 18 -7 3 3 -2 9 -12 12 -14 6 -15 5 -6 -5z"/>
<path d="M8940 441 c8 -5 33 -12 55 -16 39 -6 39 -6 15 9 -14 8 -38 15 -55 15
-22 0 -26 -2 -15 -8z"/>
<path d="M11128 293 c7 -3 16 -2 19 1 4 3 -2 6 -13 5 -11 0 -14 -3 -6 -6z"/>
<path d="M8731 270 c0 -14 6 -38 14 -55 13 -29 13 -29 14 -5 0 14 -6 39 -14
55 -13 29 -13 29 -14 5z"/>
<path d="M10948 173 c7 -3 16 -2 19 1 4 3 -2 6 -13 5 -11 0 -14 -3 -6 -6z"/>
<path d="M8764 130 c3 -19 11 -39 18 -45 8 -7 9 -1 4 25 -3 19 -11 39 -18 45
-8 7 -9 1 -4 -25z"/>
</g>
</svg>
